<svg width="614" height="433" viewBox="0 0 614 433" fill="none" xmlns="http://www.w3.org/2000/svg">
<rect x="344.631" y="289.284" width="74.8172" height="62.1247" fill="#D7E1E8"/>
<rect x="166.618" y="31.9106" width="431.704" height="257.374" rx="4.58738" fill="#082134"/>
<rect x="176.23" y="44.4469" width="409.068" height="184.626" rx="4.58738" fill="#0E3959"/>
<path d="M166.618 246.834C166.618 244.301 168.671 242.247 171.205 242.247H593.734C596.267 242.247 598.321 244.301 598.321 246.834V284.697C598.321 287.23 596.267 289.284 593.734 289.284H171.205C168.671 289.284 166.618 287.23 166.618 284.697V246.834Z" fill="#D7E1E8"/>
<path d="M390.152 265.766C390.152 270.433 386.493 274.167 382.039 274.167C377.586 274.167 373.927 270.433 373.927 265.766C373.927 261.099 377.586 257.365 382.039 257.365C386.493 257.365 390.152 261.099 390.152 265.766Z" fill="#D7E1E8" stroke="#B9C8D4" stroke-width="1.83495"/>
<rect x="318.832" y="351.409" width="129.855" height="8.87496" fill="#D7E1E8"/>
<path d="M419.396 289.507V338.063L344.02 289.507H419.396Z" fill="#8FA7B9" fill-opacity="0.5"/>
<path d="M419.396 289.507V338.063L344.02 289.507H419.396Z" fill="url(#paint0_linear)"/>
<g filter="url(#filter0_d)">
<g filter="url(#filter1_d)">
<rect x="474.216" y="113.259" width="103.603" height="36.0334" rx="4.58738" fill="#125D94"/>
</g>
<rect x="551.507" y="117.731" width="23.0229" height="5.26035" rx="2.63018" fill="#EAE7FD"/>
</g>
<g filter="url(#filter2_d)">
<g filter="url(#filter3_d)">
<rect x="474.216" y="160.866" width="103.603" height="36.0334" rx="4.58738" fill="#125D94"/>
</g>
<rect x="551.507" y="165.337" width="23.0229" height="5.26035" rx="2.63018" fill="#D2EDB8"/>
</g>
<g filter="url(#filter4_d)">
<g filter="url(#filter5_d)">
<rect x="474.216" y="65.6535" width="103.603" height="36.0334" rx="4.58738" fill="#125D94"/>
</g>
<rect x="551.507" y="70.1248" width="23.0229" height="5.26035" rx="2.63018" fill="#F9F7CF"/>
</g>
<rect x="191" y="58" width="124" height="73" rx="4.83924" fill="#DAECF9"/>
<rect x="322" y="58" width="124" height="73" rx="4.83924" fill="#DBF1C5"/>
<path d="M191 143.839C191 141.167 193.167 139 195.839 139H310.161C312.833 139 315 141.167 315 143.839V208.161C315 210.833 312.833 213 310.161 213H195.839C193.167 213 191 210.833 191 208.161V143.839Z" fill="#EAE7FD"/>
<rect x="322" y="139" width="124" height="74" rx="4.83924" fill="#F9F7CF"/>
<path d="M170.321 225.17H36.6696C33.8758 225.17 31.7307 227.646 32.1291 230.411L50.2023 355.874C50.5275 358.131 52.449 359.807 54.7299 359.807H154.018C155.115 359.807 167.643 276.258 174.859 230.457C175.297 227.67 173.142 225.17 170.321 225.17Z" fill="#A3ACFF"/>
<path d="M88.9882 196.153C82.5232 171.199 67.5398 121.522 59.3255 122.451C49.7111 123.537 8.08776 206.035 0.955426 229.395C0.618937 230.741 0.299979 232.043 0 233.294C0.145217 232.297 0.470652 230.983 0.955426 229.395C9.15045 196.597 27.7461 137.044 35.9375 125.933C42.7828 116.647 50.1985 102.719 67.3116 111.424C71.1145 113.745 81.2302 127.674 91.2699 164.815C88.9882 142.182 77.3513 89.7197 49.0576 60.9351C63.3185 72.9287 93.5517 107.71 100.397 150.887C100.207 120.129 98.1152 55.7121 91.2699 44.1054C90.1291 33.4659 83.0556 9.74961 63.889 0C81.5298 4.82444 115.634 41.6058 111.268 150.098C111.617 145.563 114.904 135.542 126.067 125.933C123.024 132.123 116.826 149.958 116.369 171.779V175.261C121.123 156.69 137.361 116.647 164.286 105.04C177.216 97.883 209.693 92.041 236.161 125.933C215.815 111.231 168.735 93.5499 143.18 140.441L141.468 143.923C143.37 141.602 148.314 136.959 152.877 136.959C158.582 136.959 173.413 165.395 172.842 186.287C168.469 171.972 158.353 144.271 152.877 147.985C150.976 147.018 144.891 150.655 135.764 172.94C124.355 200.796 122.074 204.278 122.074 206.599C122.074 208.456 122.834 208.92 123.214 208.92C123.785 208.92 125.04 209.268 125.496 210.661C126.067 212.402 128.348 211.242 128.348 210.661C128.348 210.081 140.328 195.573 151.166 215.884C162.004 236.196 158.011 375.476 155.159 383.601C152.687 346.266 147.401 266.025 146.032 243.74C144.321 215.884 140.328 210.081 131.771 219.366C133.482 238.904 136.677 277.864 135.764 277.4C134.623 276.819 127.187 216.485 123.214 220.527C120.584 223.203 120.933 224.368 120.933 226.33H118.08H95.263C94.3123 220.72 91.2699 206.599 88.9882 206.599C86.136 206.599 84.4247 207.179 84.9951 208.92C85.5656 210.661 91.2699 226.33 91.2699 226.33H81.0021C78.6501 226.33 78.1499 267.534 75.8681 298.872C73.5864 330.21 73.016 404.493 73.016 430.028C73.016 455.562 65.6003 273.918 67.882 246.642C70.1638 219.366 70.1638 216.377 70.1638 210.661C70.1638 209.501 61.0368 199.055 46.2054 231.553C32.8735 260.766 26.9164 350.47 27.0911 377.162C27.5437 383.386 27.7427 386.177 27.381 383.601C27.208 382.369 27.1107 380.164 27.0911 377.162C25.4024 353.941 20.1832 282.939 27.381 264.632C30.043 248.19 38.3334 213.099 50.1985 204.278C62.0636 195.457 72.2554 200.602 75.8681 204.278C77.3893 200.602 82.1429 193.832 88.9882 196.153Z" fill="#9ED10C"/>
<path d="M88.9882 196.153C82.5232 171.199 67.5398 121.522 59.3255 122.451C49.7111 123.537 8.08776 206.035 0.955426 229.395C0.618937 230.741 0.299979 232.043 0 233.294C0.145217 232.297 0.470652 230.983 0.955426 229.395C9.15045 196.597 27.7461 137.044 35.9375 125.933C42.7828 116.647 50.1985 102.719 67.3116 111.424C71.1145 113.745 81.2302 127.674 91.2699 164.815C88.9882 142.182 77.3513 89.7197 49.0576 60.9351C63.3185 72.9287 93.5517 107.71 100.397 150.887C100.207 120.129 98.1152 55.7121 91.2699 44.1054C90.1291 33.4659 83.0556 9.74961 63.889 0C81.5298 4.82444 115.634 41.6058 111.268 150.098C111.617 145.563 114.904 135.542 126.067 125.933C123.024 132.123 116.826 149.958 116.369 171.779V175.261C121.123 156.69 137.361 116.647 164.286 105.04C177.216 97.883 209.693 92.041 236.161 125.933C215.815 111.231 168.735 93.5499 143.18 140.441L141.468 143.923C143.37 141.602 148.314 136.959 152.877 136.959C158.582 136.959 173.413 165.395 172.842 186.287C168.469 171.972 158.353 144.271 152.877 147.985C150.976 147.018 144.891 150.655 135.764 172.94C124.355 200.796 122.074 204.278 122.074 206.599C122.074 208.456 122.834 208.92 123.214 208.92C123.785 208.92 125.04 209.268 125.496 210.661C126.067 212.402 128.348 211.242 128.348 210.661C128.348 210.081 140.328 195.573 151.166 215.884C162.004 236.196 158.011 375.476 155.159 383.601C152.687 346.266 147.401 266.025 146.032 243.74C144.321 215.884 140.328 210.081 131.771 219.366C133.482 238.904 136.677 277.864 135.764 277.4C134.623 276.819 127.187 216.485 123.214 220.527C120.584 223.203 120.933 224.368 120.933 226.33H118.08H95.263C94.3123 220.72 91.2699 206.599 88.9882 206.599C86.136 206.599 84.4247 207.179 84.9951 208.92C85.5656 210.661 91.2699 226.33 91.2699 226.33H81.0021C78.6501 226.33 78.1499 267.534 75.8681 298.872C73.5864 330.21 73.016 404.493 73.016 430.028C73.016 455.562 65.6003 273.918 67.882 246.642C70.1638 219.366 70.1638 216.377 70.1638 210.661C70.1638 209.501 61.0368 199.055 46.2054 231.553C32.8735 260.766 26.9164 350.47 27.0911 377.162C27.5437 383.386 27.7427 386.177 27.381 383.601C27.208 382.369 27.1107 380.164 27.0911 377.162C25.4024 353.941 20.1832 282.939 27.381 264.632C30.043 248.19 38.3334 213.099 50.1985 204.278C62.0636 195.457 72.2554 200.602 75.8681 204.278C77.3893 200.602 82.1429 193.832 88.9882 196.153Z" fill="url(#paint1_linear)"/>
<path d="M554.292 278.573C548.189 286.965 550.116 286.965 563.929 304.072C567.998 304.072 574.337 302.845 567.141 297.939C558.147 291.806 571.96 288.579 576.136 278.573C580.312 268.567 571.96 269.213 563.929 259.207C557.504 251.203 566.606 239.734 571.96 235C563.608 241.348 549.088 255.721 557.826 262.435C568.748 270.827 560.395 270.181 554.292 278.573Z" fill="white"/>
<rect x="515.874" y="349.364" width="92.2134" height="5.64824" rx="2.82412" fill="#0E3959"/>
<path d="M594.264 360.284H529.106C527.423 360.284 525.893 359.309 525.181 357.784C523.842 354.914 525.938 351.623 529.106 351.623H594.264C597.652 351.623 599.727 355.337 597.953 358.222C597.165 359.503 595.769 360.284 594.264 360.284Z" fill="#0E3959"/>
<path d="M595.279 295.706C597.813 295.706 599.877 297.761 599.765 300.292C599.103 315.243 595.219 329.366 588.77 340.038C581.665 351.796 572.028 358.401 561.98 358.401C551.932 358.401 542.296 351.796 535.191 340.038C528.742 329.366 524.858 315.243 524.196 300.292C524.084 297.761 526.148 295.706 528.682 295.706L561.98 295.706H595.279Z" fill="#0E3959"/>
<path d="M598.437 301.731C602.011 301.354 609.946 302.597 613.091 310.58C616.236 318.562 610.47 328.215 607.193 332.043C605.585 333.8 601.153 337.917 596.292 340.327C591.431 342.737 586.404 341.959 584.498 341.268L590.435 335.37C590.457 335.25 590.605 335.133 590.752 335.055L590.435 335.37C590.405 335.541 590.629 335.72 591.467 335.808C593.254 335.997 600.76 332.984 604.692 326.395C608.623 319.805 608.981 317.169 608.087 311.709C607.789 310.077 605.549 306.927 598.973 307.379C592.396 307.831 593.493 305.433 594.863 304.178L597.901 301.731H598.437Z" fill="#0E3959"/>
<path d="M553.938 308.32H545.36L541.608 313.592V331.666H558.049V313.215L553.938 308.32Z" fill="#F9F7CF"/>
<ellipse cx="550.186" cy="311.333" rx="1.78708" ry="1.88275" fill="#0E3959"/>
<path d="M550.772 311.234L551.908 296.187C551.943 295.724 551.577 295.329 551.112 295.329C550.692 295.329 550.343 295.656 550.316 296.076L549.341 311.134C549.315 311.548 549.643 311.897 550.057 311.897C550.432 311.897 550.744 311.608 550.772 311.234Z" fill="white"/>
<path d="M224 102C229.6 96.8001 235.333 96.1667 237.5 96.5001L269 94C274.167 94.8334 285.9 97.6001 291.5 102C297.1 106.4 305.167 123.167 308.5 131H198C204.333 123.5 218.4 107.2 224 102Z" fill="#9DD446"/>
<path d="M231 59C231.4 58.6 232.833 59.8333 233.5 60.5L234.5 69.5C234 71.6667 232.9 75.9 232.5 75.5C232 75 230.5 68 229.5 65.5C228.5 63 230.5 59.5 231 59Z" fill="#AE7555"/>
<path d="M273.5 64.9999C272.3 60.5999 270.667 62.4999 270 63.9999C271.2 65.9999 271.167 73.8333 271 77.5C271.5 76.8333 272.7 75.1 273.5 73.5C274.5 71.5 275 70.4999 273.5 64.9999Z" fill="#AE7555"/>
<path d="M238.5 99.4999C237.7 96.2999 238.167 94.8333 238.5 94.4999C247.167 94.1666 264.8 93.8999 266 95.4999C267.5 97.4999 265.5 103 263.5 105.5C261.5 108 255 109 248.5 109.5C242 110 239.5 103.5 238.5 99.4999Z" fill="#AE7555" stroke="#AE7555"/>
<ellipse cx="252" cy="68" rx="19.5" ry="33" fill="#AE7555"/>
<path d="M237.5 64H235.5C235.167 68.6667 234.4 78.6 234 81C233.5 84 233.5 89.5 235.5 92C237.5 94.5 240.5 97.5 244.5 100C248.5 102.5 253 102.5 256.5 102C260 101.5 263 100 266 99C269 98 271 88.5 271 85.5C271 82.5 271.5 71.5 271 68.5C270.5 65.5 269 67 269 68.5C269 70 267.5 75 264.5 74.5C261.5 74 259 70.5 255.5 70C252 69.5 251.5 70.5 249.5 71.5C247.5 72.5 245 75 242.5 76C240 77 241 73 238.5 68.5C236.5 64.9 237 64 237.5 64Z" fill="#65401D"/>
<ellipse cx="247.5" cy="59" rx="2" ry="3" fill="black"/>
<ellipse cx="263.5" cy="61" rx="2" ry="3" fill="black"/>
<path d="M253.5 66C255.333 67.8333 259.3 70.4 260.5 66" stroke="#9D5F3C" stroke-width="2"/>
<path d="M248 80.4999C248.167 77.8333 249.5 72.7999 253.5 73.9999C256.527 74.9082 257.454 75.1099 257.582 75.0821C257.554 75.0536 257.526 75.0263 257.5 75C257.581 75.0405 257.623 75.0732 257.582 75.0821C258.45 75.9565 260.225 77.8379 261 79C261.8 80.1999 261.333 80.8333 261 81C260.333 81.6667 258.3 82.8 255.5 82C252 81 248.5 81.9999 248 80.4999Z" fill="#AE7555"/>
<path d="M250.5 77C252.333 78.8333 256.3 81.4 257.5 77" stroke="#9D5F3C" stroke-width="2"/>
<path d="M350.536 108.155V69.1547L361.036 60.1547L396.036 62.1547L406.036 91.1547L350.536 108.155Z" fill="#CF6C34"/>
<path d="M367.536 96.6547C369.536 93.0547 368.036 87.488 367.036 85.1547C373.869 81.488 387.436 75.2547 387.036 79.6547C386.636 84.0547 389.202 90.8214 390.536 93.6547C382.036 96.1547 365.536 100.255 367.536 96.6547Z" fill="#FDBC98"/>
<ellipse cx="375.036" cy="64.6547" rx="18" ry="23.5" fill="#FECFB5"/>
<path d="M370.036 77.1547C371.286 80.2086 375.036 85.0339 380.036 79.9032" stroke="#E9A37D" stroke-width="2"/>
<path d="M374.036 73.1547C374.661 74.3762 376.536 76.3063 379.036 74.2541" stroke="#E9A37D" stroke-width="2"/>
<path d="M372.036 46.6547C372.036 44.2547 378.036 44.6547 381.036 45.1547C385.536 45.5338 383.036 50.1547 385.036 51.1547L385.036 51.1549C387.036 52.1548 387.036 52.1548 387.536 54.6547C388.035 57.1546 389.535 58.1545 392.535 60.1543L392.536 60.1547C395.536 62.1548 392.536 65.1547 394.036 66.1547C395.536 67.1547 395.536 70.6547 396.536 73.1547C397.536 75.6546 396.536 78.1547 399.036 79.6547C401.536 81.1546 400.036 83.6547 401.536 86.6547C402.736 89.0546 401.036 91.988 400.036 93.1547L402.536 96.1547L404.536 95.1547H407.536H411.536C411.869 94.1547 411.936 91.7547 409.536 90.1547C406.536 88.1547 407.536 85.6547 407.536 78.1547C405.536 76.1548 404.536 76.6547 404.536 70.6547C403.036 68.1548 403.536 69.1547 403.536 66.1547C403.536 63.1547 404.036 64.1547 401.536 62.1547C399.036 60.1546 400.536 61.1547 400.036 60.1547C399.536 59.1548 400.536 57.1547 397.536 54.6547C394.536 52.1547 395.536 53.1547 395.536 50.1547C395.536 47.1547 396.036 48.6547 394.036 47.6547C392.036 46.6547 392.536 46.6547 391.036 46.6547C389.536 46.6547 392.536 45.1547 389.536 42.6547C386.536 40.1547 386.036 39.1547 381.036 37.1547C376.036 35.1547 378.536 36.1547 376.536 37.1547C374.536 38.1548 374.036 38.1547 372.036 37.1547C370.036 36.1547 367.536 37.6547 365.536 39.1547C363.536 40.6547 366.536 42.6547 364.036 42.6547C361.536 42.6547 357.036 45.1547 355.536 46.6547C354.036 48.1547 355.536 48.6547 354.536 51.1547C353.536 53.6547 349.536 53.1547 347.536 54.6547C345.536 56.1547 346.536 57.1547 347.536 59.1547C348.536 61.1547 345.036 61.6547 342.536 64.1547C340.036 66.6547 341.536 68.1547 341.536 70.6547C341.536 73.1547 339.536 77.1547 337.536 78.1547C335.536 79.1547 336.536 78.6547 335.536 81.1547C334.536 83.6547 335.536 82.6547 334.036 83.6547C332.536 84.6547 331.536 86.6547 329.036 87.6547C326.536 88.6547 329.036 89.1547 331.536 90.1547C333.536 90.9547 333.036 91.8214 332.536 92.1547L334.036 96.1547L336.536 95.1547L335.536 97.1547L337.536 99.6547C338.702 100.155 341.336 101.155 342.536 101.155C344.036 101.155 343.536 99.1547 345.036 99.6547C346.536 100.155 345.036 102.155 345.036 103.655C345.036 105.155 348.036 107.155 347.536 104.655C347.036 102.155 348.036 99.6547 352.536 97.1547C357.036 94.6547 355.036 93.1547 354.536 89.1547C354.036 85.1547 354.536 87.6547 357.036 83.6547C359.536 79.6547 358.036 77.1547 357.036 74.6547C356.036 72.1547 358.536 72.6547 361.036 70.6547C363.536 68.6547 361.536 63.6547 362.036 60.1547C362.536 56.6547 365.536 57.6547 369.036 57.1547C372.536 56.6547 372.036 54.1547 370.036 51.1547C368.036 48.1547 372.036 49.6547 372.036 46.6547Z" fill="#FF9960"/>
<ellipse cx="382.036" cy="63.6547" rx="2" ry="1.5" fill="black"/>
<ellipse cx="368.036" cy="63.6547" rx="2" ry="1.5" fill="black"/>
<path d="M361.036 60.0786C361.911 58.857 371.036 57.178 372.036 59.0786M378.536 59.0786C379.411 57.857 385.536 57.678 386.536 59.5786" stroke="#FF9960" stroke-width="2"/>
<path d="M366.884 91.1547C364.084 91.1547 366.384 96.1547 367.884 98.6547C339.384 94.6547 348.384 104.655 348.384 108.155C348.384 110.955 353.051 124.655 355.384 131.155C372.884 131.321 407.984 131.555 408.384 131.155C408.884 130.655 411.384 94.1547 405.884 92.1547C400.384 90.1547 393.884 97.6547 393.384 94.1547C392.884 90.6547 392.384 90.1547 389.384 90.1547C386.384 90.1547 387.384 93.1547 385.884 94.1547C384.384 95.1547 385.384 92.1547 382.884 91.1547C380.384 90.1547 380.884 93.6547 378.884 94.1547C376.884 94.6547 377.884 92.1547 375.384 92.1547C372.884 92.1547 373.884 94.6547 372.884 95.1547C371.884 95.6547 370.384 91.1547 366.884 91.1547Z" fill="#125D94"/>
<path d="M337 212.85L339.5 203.35L353.5 204.85V212.85H337Z" fill="#FEC0B5" stroke="#FEC0B5"/>
<path d="M425 213.35V207.35L423 205.35L411.5 213.35H425Z" fill="#FEC0B5"/>
<path d="M353 174.85C357.8 173.25 367.667 169.517 372 167.85H393C402 170.184 420.1 175.45 420.5 177.85C421 180.85 435.5 207.35 430.5 207.85C426.5 208.25 419.167 211.684 416 213.35C395 213.517 360.5 213.35 354 213.35C351.439 213.35 340.333 204.85 336 202.85C339.667 194.184 348.2 176.45 353 174.85Z" fill="#A3ACFF"/>
<path d="M370.5 173.35C370.9 172.15 372.333 168.184 373 166.35L373.5 165.35L392 166.35L390.5 177.85C386.5 182.35 376.5 180.35 373.5 179.35C370.5 178.35 370 174.85 370.5 173.35Z" fill="#FEC0B5"/>
<path d="M391 173.35C381.4 175.35 375.333 169.184 373.5 165.85L375.5 161.85L392 166.85L391 173.35Z" fill="#EFA992"/>
<ellipse cx="383" cy="144.35" rx="19" ry="25.5" fill="#FEC0B5"/>
<ellipse cx="377.5" cy="143.85" rx="1.5" ry="2" fill="black"/>
<ellipse cx="392.5" cy="143.85" rx="1.5" ry="2" fill="black"/>
<path d="M381 153.35C383 155.85 387.2 159.05 388 151.85" stroke="#F09A7F" stroke-width="2"/>
<path d="M380 160.34C382.286 160.906 387.086 161.631 388 160" stroke="#F09A7F" stroke-width="2"/>
<path d="M390 138.66C391.714 138.094 395.314 137.369 396 139" stroke="#9C6B3E" stroke-width="2"/>
<path d="M380 138.66C378 138.094 373.8 137.369 373 139" stroke="#9C6B3E" stroke-width="2"/>
<path d="M404 137.5C403.2 135.9 401.667 138.167 401 139.5L400.5 140L401 149C402.333 145.833 404.8 139.1 404 137.5Z" fill="#FEC0B5"/>
<path d="M361 136.792C361 134.489 363.917 137.752 365.375 139.671V140.631L368 148.788C367.125 148.948 365.025 149.172 363.625 148.788C361.875 148.308 361 139.671 361 136.792Z" fill="#FEC0B5"/>
<path d="M368 132.85V144.85L366 146.35C365.167 141.85 363.5 132.45 363.5 130.85C363.5 129.25 366.5 125.517 368 123.85C368 122.517 368.6 119.55 371 118.35C374 116.85 372 115.35 374 115.85C376 116.35 378.5 115.35 381.5 113.35C383.9 111.75 388.5 116.017 390.5 118.35C391.667 118.85 395 120.65 399 123.85C404 127.85 402.5 134.35 402 136.35C401.5 138.35 400 148.35 399 144.85C398 141.35 396.5 132.85 396 130.85C395.5 128.85 376 127.85 374 128.85C372.4 129.65 369.333 131.85 368 132.85Z" fill="#9C6B3E"/>
<path d="M275.5 195.324C263 196.49 237.6 198.624 236 197.824L230.5 151.324L273 152.324L275.5 195.324Z" fill="#19364A"/>
<path d="M235.5 198.324C234.3 199.924 232.667 208.657 232 212.824H282.5C281.3 205.224 276 197.99 273.5 195.324C270.7 190.524 264 186.657 261 185.324C253 192.824 252 189.824 250 188.324C248.4 187.124 248.333 186.157 248.5 185.824H248C242.5 187.324 237 196.324 235.5 198.324Z" fill="white"/>
<path d="M249 185.324C250.6 184.124 249.667 176.157 249 172.324C252.5 171.157 259.5 169.024 259.5 169.824C259.5 170.624 260.5 180.49 261 185.324C259.5 187.157 255.9 190.724 253.5 190.324C250.5 189.824 247 186.824 249 185.324Z" fill="#FECFB5"/>
<path d="M260.5 177.513C253.822 181.614 249.717 175.121 248.5 171.362L260.5 169.824V177.513Z" fill="#F3A77D"/>
<ellipse cx="253.5" cy="148.824" rx="19" ry="25" fill="#FECFB5"/>
<ellipse cx="245.5" cy="143.324" rx="2" ry="2.5" fill="black"/>
<ellipse cx="262.552" cy="143.029" rx="2" ry="2.79907" transform="rotate(10 262.552 143.029)" fill="black"/>
<path d="M253 156.324C256.5 157.324 258 157.324 258 154.324" stroke="#F09A7F" stroke-width="2"/>
<path d="M249.5 161.824C250.5 163.49 253.5 166.124 257.5 163.324" stroke="#F09A7F" stroke-width="2"/>
<path d="M271.5 152.324C269.5 133.524 258.5 126.333 252.5 124.5C252.5 125.5 251 126.524 251 127.324C251 128.324 249.5 128.324 247 128.324C244.5 128.324 239.5 135.824 237.5 140.824C235.5 145.824 234.5 163.324 235 167.324C235.372 170.3 236.638 178.121 237.35 182.418C237.415 182.772 237.465 183.081 237.5 183.324C237.453 183.044 237.403 182.741 237.35 182.418C237.1 181.071 236.634 179.091 236 177.824C235.2 176.224 236.333 188.157 237 194.324L236 199.324C234.667 196.49 232.2 191.524 233 194.324C233.614 196.471 234.603 201.442 235.277 204.616C235.73 205.987 236 206.956 236 207.324C236 207.903 235.701 206.616 235.277 204.616C233.884 200.395 230.765 192.362 228.5 186.324C226.1 179.924 225.167 164.99 225 158.324L223 166.324C223.167 163.657 223.6 157.524 224 154.324C224.5 150.324 227.5 130.824 236 123.324C242.8 117.324 248.833 117.824 251 118.824C259.4 114.024 266.5 119.824 269 123.324C285 146.324 278.5 175.824 278.5 182.324V202.324C278.5 199.824 272.5 196.324 272.5 194.324C272.5 192.324 274 175.824 271.5 152.324Z" fill="#125D94"/>
<path d="M240.5 139C241.375 137.778 248 135.445 249 137.345M259 137.345C259.875 136.124 266 136.599 267 138.5" stroke="#F09A7F" stroke-width="2"/>
<path d="M241 56.3734C241.875 55.1518 248.5 52.8181 249.5 54.7187M259.5 54.7187C260.375 53.4971 266.5 53.9728 267.5 55.8734" stroke="#65401D" stroke-width="2"/>
<defs>
<filter id="filter0_d" x="470.546" y="113.259" width="110.943" height="43.3732" filterUnits="userSpaceOnUse" color-interpolation-filters="sRGB">
<feFlood flood-opacity="0" result="BackgroundImageFix"/>
<feColorMatrix in="SourceAlpha" type="matrix" values="0 0 0 0 0 0 0 0 0 0 0 0 0 0 0 0 0 0 127 0"/>
<feOffset dy="3.6699"/>
<feGaussianBlur stdDeviation="1.83495"/>
<feColorMatrix type="matrix" values="0 0 0 0 0 0 0 0 0 0 0 0 0 0 0 0 0 0 0.1 0"/>
<feBlend mode="normal" in2="BackgroundImageFix" result="effect1_dropShadow"/>
<feBlend mode="normal" in="SourceGraphic" in2="effect1_dropShadow" result="shape"/>
</filter>
<filter id="filter1_d" x="470.546" y="113.259" width="110.943" height="43.3732" filterUnits="userSpaceOnUse" color-interpolation-filters="sRGB">
<feFlood flood-opacity="0" result="BackgroundImageFix"/>
<feColorMatrix in="SourceAlpha" type="matrix" values="0 0 0 0 0 0 0 0 0 0 0 0 0 0 0 0 0 0 127 0"/>
<feOffset dy="3.6699"/>
<feGaussianBlur stdDeviation="1.83495"/>
<feColorMatrix type="matrix" values="0 0 0 0 0 0 0 0 0 0 0 0 0 0 0 0 0 0 0.1 0"/>
<feBlend mode="normal" in2="BackgroundImageFix" result="effect1_dropShadow"/>
<feBlend mode="normal" in="SourceGraphic" in2="effect1_dropShadow" result="shape"/>
</filter>
<filter id="filter2_d" x="470.546" y="160.866" width="110.943" height="43.3732" filterUnits="userSpaceOnUse" color-interpolation-filters="sRGB">
<feFlood flood-opacity="0" result="BackgroundImageFix"/>
<feColorMatrix in="SourceAlpha" type="matrix" values="0 0 0 0 0 0 0 0 0 0 0 0 0 0 0 0 0 0 127 0"/>
<feOffset dy="3.6699"/>
<feGaussianBlur stdDeviation="1.83495"/>
<feColorMatrix type="matrix" values="0 0 0 0 0 0 0 0 0 0 0 0 0 0 0 0 0 0 0.1 0"/>
<feBlend mode="normal" in2="BackgroundImageFix" result="effect1_dropShadow"/>
<feBlend mode="normal" in="SourceGraphic" in2="effect1_dropShadow" result="shape"/>
</filter>
<filter id="filter3_d" x="470.546" y="160.866" width="110.943" height="43.3732" filterUnits="userSpaceOnUse" color-interpolation-filters="sRGB">
<feFlood flood-opacity="0" result="BackgroundImageFix"/>
<feColorMatrix in="SourceAlpha" type="matrix" values="0 0 0 0 0 0 0 0 0 0 0 0 0 0 0 0 0 0 127 0"/>
<feOffset dy="3.6699"/>
<feGaussianBlur stdDeviation="1.83495"/>
<feColorMatrix type="matrix" values="0 0 0 0 0 0 0 0 0 0 0 0 0 0 0 0 0 0 0.1 0"/>
<feBlend mode="normal" in2="BackgroundImageFix" result="effect1_dropShadow"/>
<feBlend mode="normal" in="SourceGraphic" in2="effect1_dropShadow" result="shape"/>
</filter>
<filter id="filter4_d" x="470.546" y="65.6535" width="110.943" height="43.3732" filterUnits="userSpaceOnUse" color-interpolation-filters="sRGB">
<feFlood flood-opacity="0" result="BackgroundImageFix"/>
<feColorMatrix in="SourceAlpha" type="matrix" values="0 0 0 0 0 0 0 0 0 0 0 0 0 0 0 0 0 0 127 0"/>
<feOffset dy="3.6699"/>
<feGaussianBlur stdDeviation="1.83495"/>
<feColorMatrix type="matrix" values="0 0 0 0 0 0 0 0 0 0 0 0 0 0 0 0 0 0 0.1 0"/>
<feBlend mode="normal" in2="BackgroundImageFix" result="effect1_dropShadow"/>
<feBlend mode="normal" in="SourceGraphic" in2="effect1_dropShadow" result="shape"/>
</filter>
<filter id="filter5_d" x="470.546" y="65.6535" width="110.943" height="43.3732" filterUnits="userSpaceOnUse" color-interpolation-filters="sRGB">
<feFlood flood-opacity="0" result="BackgroundImageFix"/>
<feColorMatrix in="SourceAlpha" type="matrix" values="0 0 0 0 0 0 0 0 0 0 0 0 0 0 0 0 0 0 127 0"/>
<feOffset dy="3.6699"/>
<feGaussianBlur stdDeviation="1.83495"/>
<feColorMatrix type="matrix" values="0 0 0 0 0 0 0 0 0 0 0 0 0 0 0 0 0 0 0.1 0"/>
<feBlend mode="normal" in2="BackgroundImageFix" result="effect1_dropShadow"/>
<feBlend mode="normal" in="SourceGraphic" in2="effect1_dropShadow" result="shape"/>
</filter>
<linearGradient id="paint0_linear" x1="381.708" y1="289.507" x2="381.708" y2="338.063" gradientUnits="userSpaceOnUse">
<stop stop-color="white" stop-opacity="0"/>
<stop offset="1" stop-color="#D7E1E8"/>
</linearGradient>
<linearGradient id="paint1_linear" x1="118.08" y1="0" x2="118.08" y2="432.48" gradientUnits="userSpaceOnUse">
<stop stop-color="white" stop-opacity="0"/>
<stop offset="1" stop-color="#38AE00"/>
</linearGradient>
</defs>
</svg>
