<svg width="566" height="573" viewBox="0 0 566 573" fill="none" xmlns="http://www.w3.org/2000/svg">
<path d="M199.927 222.553C196.279 164.85 260.196 127.854 308.414 159.758L464.207 262.841C509.276 292.662 504.99 360.136 456.51 384.015L311.742 455.321C266.939 477.389 214.102 446.785 210.951 396.941L199.927 222.553Z" fill="#D2EDB8"/>
<rect x="239.317" y="222" width="172" height="176" rx="20" fill="white"/>
<rect x="363.317" y="355" width="23" height="20" rx="10" fill="#EAE7FD"/>
<rect x="331.317" y="355" width="23" height="20" rx="10" fill="#EAE7FD"/>
<rect x="300.317" y="355" width="22" height="20" rx="10" fill="#EAE7FD"/>
<rect x="268.317" y="355" width="22" height="20" rx="10" fill="#EAE7FD"/>
<rect x="363.317" y="285" width="23" height="21" rx="10" fill="#EAE7FD"/>
<rect x="331.317" y="285" width="23" height="21" rx="10" fill="#EAE7FD"/>
<rect x="300.317" y="285" width="22" height="21" rx="10" fill="#EAE7FD"/>
<rect x="268.317" y="285" width="22" height="21" rx="10" fill="#EAE7FD"/>
<rect x="363.317" y="251" width="23" height="20" rx="10" fill="#EAE7FD"/>
<rect x="331.317" y="251" width="23" height="20" rx="10" fill="#EAE7FD"/>
<rect x="300.317" y="251" width="22" height="20" rx="10" fill="#EAE7FD"/>
<rect x="268.317" y="251" width="22" height="20" rx="10" fill="#EAE7FD"/>
<rect x="363.317" y="320" width="23" height="20" rx="10" fill="#EAE7FD"/>
<rect x="331.317" y="320" width="23" height="20" rx="10" fill="#EAE7FD"/>
<rect x="300.317" y="320" width="22" height="20" rx="10" fill="#EAE7FD"/>
<rect x="268.317" y="320" width="22" height="20" rx="10" fill="#EAE7FD"/>
<rect x="283.317" y="205" width="17" height="29" rx="8.5" fill="#C4C4C4"/>
<rect x="318.317" y="205" width="17" height="29" rx="8.5" fill="#C4C4C4"/>
<rect x="356.317" y="205" width="17" height="29" rx="8.5" fill="#C4C4C4"/>
</svg>
