<svg width="341" height="332" viewBox="0 0 341 332" fill="none" xmlns="http://www.w3.org/2000/svg">
<path d="M282.405 108.063C245.41 64.8607 176.561 10.9426 114.973 61.5817C53.386 112.221 22.2327 180.619 59.2272 223.821C96.2217 267.023 165.071 320.941 226.658 270.302C288.246 219.663 319.399 151.265 282.405 108.063Z" fill="#DAECF9"/>
<g filter="url(#filter0_d)">
<path fill-rule="evenodd" clip-rule="evenodd" d="M91.1277 247.964C87.8784 249.135 86.2101 252.713 87.4014 255.955C88.2119 258.161 90.1375 259.643 92.3091 259.996C91.5707 261.474 91.4211 263.242 92.0378 264.92C93.229 268.162 96.8288 269.841 100.078 268.67L100.315 268.584C100.132 269.628 100.214 270.733 100.607 271.803C101.798 275.045 105.398 276.723 108.647 275.552L111.255 274.612C111.072 275.655 111.154 276.761 111.547 277.83C112.738 281.073 116.338 282.751 119.587 281.58L132.711 276.848C135.96 275.677 137.628 272.099 136.437 268.857C136.033 267.759 135.354 266.84 134.505 266.151C137.164 264.699 138.428 261.49 137.35 258.556C136.957 257.487 136.302 256.587 135.484 255.904L135.722 255.819C138.971 254.647 140.639 251.07 139.448 247.828C138.831 246.149 137.569 244.89 136.045 244.228C137.479 242.575 137.993 240.214 137.182 238.008C135.991 234.766 132.391 233.087 129.142 234.259L91.1277 247.964Z" fill="#2A73AA"/>
</g>
<g filter="url(#filter1_d)">
<path fill-rule="evenodd" clip-rule="evenodd" d="M136.235 211.256C143.992 197.303 145.824 180.061 139.817 163.713C128.917 134.048 96.3334 118.562 67.0402 129.123C37.7469 139.684 22.8363 172.294 33.7364 201.958C39.8146 218.5 52.6351 230.634 67.8678 236.3C67.6468 238.146 67.8259 239.939 68.4476 241.631C72.2597 252.005 91.2697 254.676 110.908 247.596C130.546 240.516 143.375 226.366 139.563 215.991C138.895 214.172 137.759 212.59 136.235 211.256Z" fill="#FEF2B5"/>
</g>
<path d="M101.495 251L82.57 206.179C80.004 200.328 73.7813 191.072 69.4191 200.851C65.0568 210.63 95.8279 202.209 111.759 196.776C115.18 193.851 119.97 188 111.759 188C103.547 188 113.585 223.94 120 243.164" stroke="#2A73AA" stroke-width="3"/>
<defs>
<filter id="filter0_d" x="77.0167" y="217.885" width="92.8159" height="88.0674" filterUnits="userSpaceOnUse" color-interpolation-filters="sRGB">
<feFlood flood-opacity="0" result="BackgroundImageFix"/>
<feColorMatrix in="SourceAlpha" type="matrix" values="0 0 0 0 0 0 0 0 0 0 0 0 0 0 0 0 0 0 127 0"/>
<feOffset dx="10" dy="4"/>
<feGaussianBlur stdDeviation="10"/>
<feColorMatrix type="matrix" values="0 0 0 0 0.163889 0 0 0 0 0.452148 0 0 0 0 0.666667 0 0 0 0.1 0"/>
<feBlend mode="normal" in2="BackgroundImageFix" result="effect1_dropShadow"/>
<feBlend mode="normal" in="SourceGraphic" in2="effect1_dropShadow" result="shape"/>
</filter>
<filter id="filter1_d" x="20.1681" y="109.805" width="153.217" height="165.751" filterUnits="userSpaceOnUse" color-interpolation-filters="sRGB">
<feFlood flood-opacity="0" result="BackgroundImageFix"/>
<feColorMatrix in="SourceAlpha" type="matrix" values="0 0 0 0 0 0 0 0 0 0 0 0 0 0 0 0 0 0 127 0"/>
<feOffset dx="10" dy="4"/>
<feGaussianBlur stdDeviation="10"/>
<feColorMatrix type="matrix" values="0 0 0 0 0.163889 0 0 0 0 0.452148 0 0 0 0 0.666667 0 0 0 0.1 0"/>
<feBlend mode="normal" in2="BackgroundImageFix" result="effect1_dropShadow"/>
<feBlend mode="normal" in="SourceGraphic" in2="effect1_dropShadow" result="shape"/>
</filter>
</defs>
</svg>
