<svg width="487" height="394" viewBox="0 0 487 394" fill="none" xmlns="http://www.w3.org/2000/svg">
<path d="M273.049 94.0089C315.419 144.504 364.532 232.48 297.435 288.781C230.338 345.082 148.353 363.871 105.982 313.376C63.612 262.881 14.4989 174.905 81.596 118.604C148.693 62.3024 230.678 43.5139 273.049 94.0089Z" fill="#F9F7CF"/>
<path d="M276.529 90.0837C311.838 50.094 377.112 62.7164 394.966 112.987L445.093 254.125C463.332 305.477 418.486 357.056 365.098 346.132L217.093 315.847C164.365 305.058 143.03 241.282 178.652 200.937L276.529 90.0837Z" fill="#EAE7FD"/>
<path d="M281.374 310.832C286.274 307.57 283.416 297.243 281.374 292.486C288.861 290.788 303.426 288.002 301.792 290.448C300.159 292.894 305.876 303.018 308.938 307.774C307.577 310.152 303.016 315.316 295.666 316.947C286.479 318.985 275.249 314.909 281.374 310.832Z" fill="#FCC09E" stroke="#FCC09E" stroke-width="0.917476"/>
<path d="M272.189 264.559C274.23 261.501 276.272 261.501 280.355 262.52" stroke="black" stroke-width="0.917476"/>
<path d="M316.085 267.075C309.96 285.352 304.659 294.593 290.564 294.593C276.469 294.593 270.147 282.294 265.043 267.075C265.043 251.877 276.469 239.557 290.564 239.557C304.659 239.557 316.085 251.877 316.085 267.075Z" fill="#FCC09E"/>
<path d="M284.438 274.141C286.888 275.772 288.181 275.5 288.522 275.16L290.563 274.141" stroke="#FB968F" stroke-width="0.917476"/>
<path d="M272.189 263.949C274.23 262.93 278.518 261.299 279.334 262.93" stroke="black" stroke-width="0.917476"/>
<path d="M293.626 263.95C295.668 261.596 297.71 262.146 301.793 262.93" stroke="black" stroke-width="0.917476"/>
<ellipse cx="297.709" cy="267.007" rx="1.02084" ry="1.01919" fill="black"/>
<ellipse cx="229.622" cy="287.156" rx="1.02084" ry="1.01919" fill="black"/>
<ellipse cx="277.292" cy="267.007" rx="1.02084" ry="1.01919" fill="black"/>
<path d="M288.522 253.757C283.622 253.757 280.355 246.962 279.334 243.565C270.147 241.527 264.021 264.968 264.021 267.007C264.021 268.637 268.785 277.198 271.167 281.275C271.167 281.955 270.758 283.11 269.125 282.294C267.083 281.275 265.042 282.294 259.938 283.314C254.833 284.333 248.708 273.122 250.75 273.122C252.792 273.122 252.792 277.198 257.896 277.198C263.001 277.198 257.896 273.122 254.834 268.026C251.771 262.93 254.834 263.949 257.896 258.853C260.959 253.757 255.855 247.642 255.855 240.508C255.855 233.373 259.938 235.412 266.063 235.412C272.188 235.412 273.209 226.239 277.292 222.162C281.376 218.085 287.501 220.124 293.626 225.22C299.751 230.316 304.855 227.258 316.085 231.335C327.314 235.412 326.293 247.642 324.251 252.738C322.21 257.834 335.481 260.891 336.501 267.007C337.522 273.122 332.418 275.16 328.335 273.122C324.251 271.083 321.189 279.237 318.126 283.314C315.064 287.39 309.959 287.39 308.939 283.314C308.122 280.052 311.321 277.878 313.022 277.198C313.703 274.82 314.043 269.86 309.959 269.045C305.876 268.23 300.772 261.231 298.73 257.834C297.369 256.475 293.422 253.757 288.522 253.757Z" fill="#D28D26" stroke="#D28D26" stroke-width="0.917476"/>
<path fill-rule="evenodd" clip-rule="evenodd" d="M347.735 338.734C306.152 345.472 272.165 349.118 244.333 350.492C248.77 336.22 260.61 311.94 278.313 312.217C278.994 313.915 281.58 317.313 286.48 317.313C292.605 317.313 310.98 308.794 309.959 306.755C308.939 304.717 343.647 321.389 347.731 338.716C347.732 338.722 347.734 338.728 347.735 338.734Z" fill="#E4DE5F"/>
<path d="M152.258 298.804C145.871 298.461 147.113 294.079 148.532 291.931L170.886 290.213C171.95 291.788 173.76 295.368 172.483 297.086C170.886 299.234 160.241 299.234 152.258 298.804Z" fill="#FEC0B5" stroke="#FEC0B5" stroke-width="0.917476"/>
<path d="M138.385 257.49C140.697 254.018 143.009 254.018 147.633 255.175" stroke="black" stroke-width="0.917476"/>
<path d="M181.433 266.694C174.423 286.97 174.552 291.472 158.422 291.472C142.291 291.472 137.002 279.802 132.799 262.298C135.201 242.293 142.291 233.541 158.422 233.541C174.828 236.042 181.433 249.833 181.433 266.694Z" fill="#FEC0B5"/>
<path d="M152.257 268.373C155.031 270.225 158.859 268.766 159.244 268.38" stroke="#FB968F" stroke-width="0.917476"/>
<path d="M139.969 254.077C141.707 252.276 144.783 252.068 146.853 254.077" stroke="black" stroke-width="0.917476"/>
<path d="M162.686 254.57C166.127 251.932 163.374 252.647 168.881 252.647" stroke="black" stroke-width="0.917476"/>
<ellipse cx="167.284" cy="260.271" rx="1.15596" ry="1.15748" fill="black"/>
<path d="M130.368 260.654C130.368 256.272 133.641 260.654 133.641 261.28L136.447 266.288C135.667 268.166 134.015 272.047 133.641 272.548C133.173 273.174 130.368 265.036 130.368 260.654Z" fill="#FEC0B5" stroke="#FEC0B5" stroke-width="0.917476"/>
<path d="M185.08 259.988C185.08 255.58 180.825 259.988 180.825 260.618L177.177 265.655C178.19 267.544 180.338 271.448 180.825 271.952C181.433 272.582 185.08 264.396 185.08 259.988Z" fill="#FEC0B5" stroke="#FEC0B5" stroke-width="0.917476"/>
<ellipse cx="144.165" cy="260.271" rx="1.15596" ry="1.15748" fill="black"/>
<path d="M145.068 277.4C141.354 277.4 137.773 274.139 136.447 272.509C138.038 285.552 147.721 293.704 152.363 296.15C154.574 296.422 160.189 296.802 164.964 296.15C170.932 295.335 167.616 294.519 171.595 292.889C174.779 291.585 178.669 277.128 180.217 270.063L172.259 274.954C165.627 279.03 164.3 275.769 161.648 274.954C158.995 274.139 155.016 274.954 152.363 275.769C149.71 276.585 149.71 277.4 145.068 277.4Z" fill="#9C6B3E" stroke="#9C6B3E" stroke-width="0.917476"/>
<path d="M161.997 278.392C159.932 277.677 159.932 276.962 153.048 279.107C153.048 279.584 153.736 280.537 156.49 280.537C159.932 280.537 164.062 279.107 161.997 278.392Z" fill="#FEC0B5" stroke="#FEC0B5" stroke-width="0.917476"/>
<path d="M160.809 236.07C154.85 231.127 148.168 233.324 145.911 237.443C144.782 236.299 142.796 238.816 141.171 238.816C139.139 238.816 136.43 247.053 135.076 250.486C133.721 253.918 134.399 261.469 132.367 258.723C130.742 256.527 129.884 260.096 129.658 262.155L128.981 261.469C128.078 261.011 126.544 259.547 127.627 257.35C128.981 254.605 128.304 250.486 126.273 248.426C124.241 246.367 128.981 236.07 132.367 229.205C135.076 223.714 142.074 224.629 145.234 225.773C144.105 227.146 143.88 228.519 152.006 223.027C162.164 216.162 155.392 222.341 173.676 227.832C191.96 233.324 183.157 243.621 185.188 248.426C186.813 252.27 189.026 253.232 189.928 253.232C189.703 253.689 188.845 254.879 187.22 255.977C185.188 257.35 184.511 253.918 185.188 257.35C185.73 260.096 189.477 259.41 191.283 258.723C189.251 259.867 184.24 261.469 180.448 258.723C175.707 255.291 179.093 250.486 173.676 250.486C168.258 250.486 168.258 242.248 160.809 236.07Z" fill="#9C6B3E" stroke="#9C6B3E" stroke-width="0.917476"/>
<path fill-rule="evenodd" clip-rule="evenodd" d="M146.163 296.993C148.388 299.596 156.719 303.499 172.249 298.295C173.26 298.295 177.345 299.205 185.595 302.849C195.908 307.403 205.746 343.139 206.353 347.042C206.628 348.815 207.135 349.848 207.41 350.41C207.573 350.743 207.655 350.91 207.561 350.969C152.946 349.334 131.524 336.314 121.622 324.251C124.134 314.781 130.065 305.228 146.163 296.993Z" fill="#0E3959"/>
<path d="M244.322 264.481C242.038 261.139 239.754 261.139 235.187 262.253" stroke="black" stroke-width="0.917476"/>
<path d="M201.101 271.409C212.101 289.909 209.601 292.409 223.381 296.994C239.101 290.909 246.498 281.979 252.277 266.242C252.277 250.528 239.34 237.789 223.381 237.789C207.423 237.789 201.101 255.695 201.101 271.409Z" fill="#C97A6C"/>
<path d="M230.518 274.965C227.118 277.719 226.438 276.342 224.342 275.663V274.965" stroke="#FB968F" stroke-width="0.917476"/>
<path d="M244.117 263.95C242.174 263.13 238.094 261.817 237.317 263.13" stroke="black" stroke-width="0.917476"/>
<path d="M220.318 263.262C215.558 261.885 215.776 261.844 211.209 262.702" stroke="black" stroke-width="0.917476"/>
<ellipse rx="1.14183" ry="1.11426" transform="matrix(-1 0 0 1 215.777 267.158)" fill="black"/>
<path d="M212.601 296.909C215.401 292.909 214.435 291.909 213.601 291.909C220.268 290.909 233.501 289.509 233.101 291.909C232.601 294.909 240.101 301.909 249.101 307.909C258.101 313.909 260.101 320.409 255.101 316.909C250.101 313.409 186.601 319.909 187.101 317.909C187.601 315.909 191.101 313.909 196.601 307.909C202.101 301.909 209.101 301.909 212.601 296.909Z" fill="#C97A6C" stroke="#C97A6C"/>
<ellipse rx="1.14183" ry="1.11426" transform="matrix(-1 0 0 1 240.255 267.818)" fill="black"/>
<path d="M233.101 247.909C231.101 242.909 234.601 244.409 226.101 244.909C225.268 244.409 220.385 243.669 213.601 247.909C205.601 252.909 205.601 259.909 201.601 270.409C200.355 273.68 211.601 290.409 213.601 290.409C215.601 290.409 209.601 294.909 205.601 297.909L205.601 297.909C201.601 300.909 201.601 299.409 199.601 296.409C197.601 293.409 193.601 290.409 186.601 286.909C179.601 283.409 184.601 277.909 189.101 270.409C193.601 262.909 191.101 261.909 186.601 256.409C182.101 250.909 190.601 243.409 195.601 239.909C200.601 236.409 203.601 232.909 205.601 227.409C207.601 221.909 226.101 223.909 231.601 227.409C237.101 230.909 236.601 232.409 242.601 230.409C248.601 228.409 247.601 233.409 249.601 237.909C251.601 242.409 254.601 241.909 259.101 243.409C263.601 244.909 266.101 253.409 264.601 259.909C263.101 266.409 269.101 267.909 269.101 273.409C269.101 278.909 264.601 281.909 262.101 285.409C259.601 288.909 264.601 290.409 263.601 294.909C262.601 299.409 253.601 300.409 244.601 299.409C235.601 298.409 241.601 294.409 238.101 290.409C234.601 286.409 246.101 280.409 247.601 275.909C249.101 271.409 246.601 270.409 247.601 265.409C247.946 263.683 248.53 262.85 248.858 262.521C248.388 262.774 247.166 263.226 244.601 263.409C237.601 263.909 235.101 252.909 233.101 247.909Z" fill="black" stroke="black"/>
<path fill-rule="evenodd" clip-rule="evenodd" d="M269.334 348.651C226.392 352.357 195.728 351.381 173.651 347.823C177.873 333.462 184.732 315.594 192.101 311.909C194.268 310.576 201.901 308.709 215.101 311.909C225.364 314.397 233.112 310.695 238.707 308.022C242.107 306.397 244.711 305.153 246.601 305.909C247.233 306.162 247.866 306.391 248.496 306.619C252.85 308.195 257.107 309.737 260.601 318.909C262.9 324.942 266.539 338.043 269.334 348.651Z" fill="#FFA471"/>
</svg>
