<svg width="575" height="775" viewBox="0 0 575 775" fill="none" xmlns="http://www.w3.org/2000/svg">
<path d="M23 248H210.22V484H23V248Z" fill="#B1DCFF"/>
<path d="M235.78 248H423V484H235.78V248Z" fill="#B1DCFF"/>
<path fill-rule="evenodd" clip-rule="evenodd" d="M23.8857 225.672H206.863L207.603 150.448H101.262V182.521H96.1882V150.448H27.0564C27.5638 147.893 27.6907 147.448 27.6907 147.545H96.1882V142.284H28.9592C28.9974 142.038 29.0362 141.806 29.0747 141.59C22.571 165.784 20.2684 193.668 23.8857 225.672ZM29.6864 139.369H96.1882V134.12H31.2508C30.7072 135.85 30.1855 137.599 29.6864 139.369ZM32.1941 131.205H96.1882V125.957H34.033C34.0439 125.925 34.0548 125.893 34.0657 125.862C33.4184 127.621 32.7942 129.402 32.1941 131.205ZM38.0127 116.043H96.1882V105.547H43.0198C41.2565 108.948 39.5848 112.447 38.0127 116.043ZM48.4042 95.9169C48.4843 95.8089 48.5566 95.7144 48.6205 95.6337H96.1882V84.5543H55.9142C56.4846 83.7214 57.0243 82.9473 57.5331 82.2294C54.3234 86.5877 51.2716 91.148 48.4042 95.9169ZM63.0225 75.1539C63.2375 74.9206 63.4051 74.7512 63.525 74.641H96.1882V63.5614H73.3557C73.5998 63.3025 73.845 63.0445 74.0907 62.7881C70.2637 66.697 66.5642 70.8164 63.0225 75.1539ZM81.9634 55.1963C82.7112 54.5406 83.3451 54.0125 83.8206 53.6482H96.1882V43.4434C96.279 43.3599 96.3714 43.277 96.465 43.1948C91.5151 46.9176 86.6647 50.9139 81.9634 55.1963ZM99.4027 41.0257C99.8563 40.737 100.275 40.4879 100.627 40.2888L109.189 34.341C105.898 36.4578 102.632 38.6849 99.4027 41.0257ZM110.92 33.2386C116.69 29.6036 122.526 26.3041 128.356 23.3221L208.859 22.7438L208.756 33.2386H110.92ZM208.658 43.1518H101.262V53.6482H208.448V63.5614H101.262V74.641H208.349L208.658 43.1518ZM208.251 84.5543H101.262V95.6337H208.142L208.251 84.5543ZM208.045 105.547H101.262V116.043H207.814V125.957H101.262V131.205H207.792L208.045 105.547ZM207.764 134.12H101.262V139.369H207.712L207.764 134.12ZM207.683 142.284H101.262V147.545H207.632L207.683 142.284ZM208.957 12.829L209.083 0C194.417 0.592706 174.011 4.52055 152.042 12.829H208.957ZM148.734 14.1088C146.794 14.8762 144.844 15.6777 142.887 16.5141C144.195 15.9719 145.453 15.4557 146.62 14.9771L146.62 14.9771L146.621 14.977L146.621 14.9769L146.621 14.9767C147.367 14.671 148.075 14.3807 148.734 14.1088Z" fill="#B1DCFF"/>
<path fill-rule="evenodd" clip-rule="evenodd" d="M421.084 225.672H235.436L234.685 150.448H417.867C417.352 147.893 417.223 147.448 417.223 147.545H234.656L234.603 142.284H415.936C415.897 142.035 415.857 141.8 415.817 141.581C422.418 165.777 424.755 193.664 421.084 225.672ZM415.199 139.369H234.574L234.522 134.121H413.612C414.163 135.85 414.693 137.599 415.199 139.369ZM234.237 105.547L234.493 131.205H412.655C412.042 129.391 411.405 127.6 410.744 125.831L410.788 125.957H234.47V116.044H406.751C405.156 112.447 403.46 108.948 401.671 105.547H234.237ZM234.138 95.6338L234.027 84.5544H388.588C388.002 83.7119 387.449 82.9296 386.927 82.2048C390.192 86.5721 393.295 91.1423 396.211 95.9219C396.128 95.8119 396.054 95.7158 395.988 95.6338H234.138ZM233.928 74.6411L233.614 43.1519H347.387C352.437 46.8922 357.385 50.909 362.179 55.2148C361.411 54.5507 360.761 54.0159 360.274 53.6482H233.827V63.5615H370.891C370.632 63.2899 370.371 63.0193 370.109 62.7505C374.007 66.6726 377.775 70.8067 381.382 75.1606C381.161 74.9239 380.988 74.7523 380.866 74.6411H233.928ZM233.41 22.7439L233.515 33.2387H332.779C326.926 29.6036 321.005 26.3042 315.089 23.3222L233.41 22.7439ZM233.311 12.8291H291.057C268.768 4.52058 248.063 0.592708 233.183 0L233.311 12.8291ZM294.393 14.1009C295.068 14.3751 295.793 14.6682 296.557 14.977L296.557 14.9771C297.749 15.459 299.036 15.9791 300.373 16.5253C298.371 15.6821 296.376 14.8742 294.393 14.1009ZM334.525 34.3341L347.184 43.0014C343.023 39.9273 338.794 37.0405 334.525 34.3341Z" fill="#B1DCFF"/>
<path d="M125.312 153.578C155.837 161.407 125.312 177.032 191.476 177.032C196.893 177.032 202.066 177.199 207 177.5V207H22.2993C21.539 196.82 22.4049 182.725 22.9329 176.95C71.188 174.855 46.0596 133.253 125.312 153.578Z" fill="white"/>
<path d="M236 422C296.215 423.855 323.476 446.448 326 452H236V422Z" fill="white"/>
<path d="M140 333C140 322.98 150.645 302.94 193.226 302.94C200.012 302.94 205.472 302.217 210 301V333H140Z" fill="white"/>
<path d="M55.0034 421.524C108.596 421.524 80.0133 376.472 161.474 397.673C188.87 404.803 167.195 418.292 210 421.031V452H23V426.775C30.839 423.608 41.272 421.524 55.0034 421.524Z" fill="white"/>
<path d="M300.073 278.673C330.611 286.634 300.073 302.524 366.266 302.524C389.555 302.524 408.33 305.571 423 309.776V333H236V283.092C245.772 274.244 258.717 267.891 300.073 278.673Z" fill="white"/>
<path d="M235 181C270.997 188.095 288.029 202.697 290 207H235.442L235 181Z" fill="white"/>
<rect x="322.669" y="648.833" width="70.0495" height="54.5114" fill="#D7E1E8"/>
<rect x="156" y="423" width="404.194" height="225.833" rx="4.58738" fill="#082134"/>
<rect x="165" y="434" width="383" height="162" rx="4.58738" fill="#0E3959"/>
<path d="M156 612.147C156 609.614 158.054 607.56 160.587 607.56H555.606C558.14 607.56 560.194 609.614 560.194 612.147V644.245C560.194 646.779 558.14 648.833 555.606 648.833H160.587C158.054 648.833 156 646.779 156 644.245V612.147Z" fill="#D7E1E8"/>
<path d="M365.231 628.196C365.231 632.177 361.886 635.456 357.694 635.456C353.503 635.456 350.157 632.177 350.157 628.196C350.157 624.216 353.503 620.937 357.694 620.937C361.886 620.937 365.231 624.216 365.231 628.196Z" fill="#D7E1E8" stroke="#B9C8D4" stroke-width="1.83495"/>
<rect x="298.514" y="703.344" width="121.58" height="7.78734" fill="#D7E1E8"/>
<path d="M392.671 649.028V691.634L322.097 649.028H392.671Z" fill="#8FA7B9" fill-opacity="0.5"/>
<path d="M392.671 649.028V691.634L322.097 649.028H392.671Z" fill="url(#paint0_linear)"/>
<g filter="url(#filter0_d)">
<g filter="url(#filter1_d)">
<rect x="443.997" y="494.38" width="97.0009" height="31.6176" rx="4.58738" fill="#125D94"/>
</g>
<rect x="516.363" y="498.303" width="21.5558" height="4.6157" rx="2.30785" fill="#EAE7FD"/>
</g>
<g filter="url(#filter2_d)">
<g filter="url(#filter3_d)">
<rect x="443.997" y="536.152" width="97.0009" height="31.6176" rx="4.58738" fill="#125D94"/>
</g>
<rect x="516.363" y="540.075" width="21.5558" height="4.6157" rx="2.30785" fill="#D2EDB8"/>
</g>
<g filter="url(#filter4_d)">
<g filter="url(#filter5_d)">
<rect x="443.997" y="452.608" width="97.0009" height="31.6176" rx="4.58738" fill="#125D94"/>
</g>
<rect x="516.363" y="456.531" width="21.5557" height="4.6157" rx="2.30785" fill="#F9F7CF"/>
</g>
<rect x="188.792" y="452.607" width="106.93" height="57.7707" rx="4.83924" fill="#DAECF9"/>
<rect x="301.424" y="452.607" width="106.93" height="57.7707" rx="4.83924" fill="#DBF1C5"/>
<path d="M188.792 521.716C188.792 519.044 190.958 516.877 193.631 516.877H290.882C293.555 516.877 295.721 519.044 295.721 521.716V569.809C295.721 572.481 293.555 574.648 290.882 574.648H193.631C190.958 574.648 188.792 572.481 188.792 569.809V521.716Z" fill="#EAE7FD"/>
<rect x="301.424" y="516.877" width="106.93" height="57.7707" rx="4.83924" fill="#F9F7CF"/>
<path d="M226.93 481.854C227.837 480.74 228.949 476.587 229.782 475.355H240.118C240.742 476.258 242.257 479.688 243.425 481.101C244.41 482.293 223.949 485.518 226.93 481.854Z" fill="#C97A6C" stroke="#C97A6C" stroke-width="0.917476"/>
<path d="M243.683 480.771C235.984 482.216 229.544 481.373 227.287 480.771C223.96 483.058 216.594 488.642 213.742 492.686C210.891 496.73 209.227 505.926 208.752 510.018H268.989C263.762 499.667 251.381 479.327 243.683 480.771Z" fill="#FF8484" stroke="#FF8484" stroke-width="0.917476"/>
<path d="M223.433 458.397C224.789 456.406 226.144 456.406 228.855 457.069" stroke="black" stroke-width="0.917476"/>
<path d="M250.098 462.881C245.827 474.392 245.108 476.077 236.078 479.327C226.217 476.8 223.138 472.466 219.579 462.881C218.308 451.38 226.251 444.665 236.078 444.665C245.906 444.665 249.029 453.478 250.098 462.881Z" fill="#C97A6C"/>
<path d="M232.99 466.328C234.616 467.39 236.86 466.553 237.086 466.332" stroke="#9E6054" stroke-width="0.917476"/>
<path d="M225.861 457.663C227.121 456.753 229.35 456.648 230.851 457.663" stroke="black" stroke-width="0.917476"/>
<path d="M237.979 458.094C239.998 456.581 238.383 456.991 241.612 456.991" stroke="black" stroke-width="0.917476"/>
<ellipse cx="240.377" cy="459.991" rx="0.677755" ry="0.663704" fill="black"/>
<ellipse cx="195.173" cy="473.113" rx="0.677755" ry="0.663704" fill="black"/>
<ellipse cx="228.677" cy="460.493" rx="0.677755" ry="0.663704" fill="black"/>
<path d="M227.643 448.636C222.796 447.769 220.158 455.737 219.445 459.829C219.089 458.986 218.447 456.868 218.732 455.135C219.089 452.969 221.584 447.553 225.504 443.942C229.425 440.331 236.554 441.776 243.326 444.664C250.098 447.553 249.742 454.413 249.742 457.301V461.634C249.148 459.107 247.461 453.258 245.465 450.08C242.97 446.108 240.118 449.719 235.485 450.08C230.851 450.441 233.702 449.719 227.643 448.636Z" fill="black" stroke="black" stroke-width="0.917476"/>
<path d="M334.505 485.919C337.378 484.049 335.702 478.127 334.505 475.4C338.894 474.426 347.433 472.829 346.476 474.231C345.518 475.634 348.87 481.439 350.666 484.166C349.867 485.53 347.194 488.491 342.884 489.426C337.497 490.595 330.913 488.257 334.505 485.919Z" fill="#FEC0B5" stroke="#FEC0B5" stroke-width="0.917476"/>
<path d="M332.71 486.713C333.109 487.687 334.625 489.635 337.498 489.635C341.089 489.635 351.863 484.751 351.264 483.582C350.666 482.413 371.016 491.973 373.41 501.908C374.757 507.497 375.394 509.561 375.653 510.09H375.804C375.804 510.263 375.762 510.313 375.653 510.09H312.359C314.554 502.228 321.697 486.545 332.71 486.713Z" fill="#A3ACFF" stroke="#A3ACFF" stroke-width="0.917476"/>
<path d="M329.119 459.386C330.316 457.633 331.513 457.633 333.907 458.217" stroke="black" stroke-width="0.917476"/>
<path d="M354.856 460.829C351.265 471.309 348.156 476.608 339.892 476.608C331.628 476.608 327.922 469.556 324.929 460.829C324.929 452.114 331.628 445.05 339.892 445.05C348.156 445.05 354.856 452.114 354.856 460.829Z" fill="#FEC0B5"/>
<path d="M336.301 464.881C337.738 465.816 338.496 465.66 338.695 465.465L339.892 464.881" stroke="#FB968F" stroke-width="0.917476"/>
<path d="M329.119 459.037C330.316 458.452 332.83 457.517 333.309 458.452" stroke="black" stroke-width="0.917476"/>
<path d="M341.688 459.037C342.885 457.687 344.082 458.002 346.476 458.452" stroke="black" stroke-width="0.917476"/>
<ellipse cx="344.082" cy="460.79" rx="0.598536" ry="0.584409" fill="black"/>
<ellipse cx="304.161" cy="472.344" rx="0.598536" ry="0.584409" fill="black"/>
<ellipse cx="332.111" cy="460.79" rx="0.598536" ry="0.584409" fill="black"/>
<path d="M338.695 453.192C335.822 453.192 333.907 449.296 333.308 447.348C327.921 446.179 324.33 459.621 324.33 460.79C324.33 461.725 327.123 466.634 328.52 468.971C328.52 469.361 328.28 470.023 327.323 469.556C326.125 468.971 324.929 469.556 321.936 470.14C318.943 470.725 315.352 464.296 316.549 464.296C317.746 464.296 317.746 466.634 320.739 466.634C323.732 466.634 320.739 464.296 318.943 461.374C317.148 458.452 318.943 459.036 320.739 456.114C322.535 453.192 319.542 449.686 319.542 445.595C319.542 441.504 321.936 442.673 325.527 442.673C329.119 442.673 329.717 437.413 332.111 435.076C334.505 432.738 338.097 433.907 341.688 436.829C345.279 439.751 348.272 437.998 354.856 440.335C361.44 442.673 360.841 449.686 359.644 452.608C358.447 455.53 366.228 457.283 366.826 460.79C367.425 464.296 364.432 465.465 362.038 464.296C359.644 463.127 357.848 467.803 356.053 470.14C354.257 472.478 351.264 472.478 350.666 470.14C350.187 468.27 352.062 467.023 353.06 466.634C353.459 465.27 353.659 462.426 351.264 461.958C348.87 461.491 345.878 457.478 344.68 455.53C343.882 454.751 341.568 453.192 338.695 453.192Z" fill="black" stroke="black" stroke-width="0.917476"/>
<path d="M227.179 524.836C228.376 523.082 229.573 523.082 231.967 523.667" stroke="black" stroke-width="0.917476"/>
<path d="M250.811 525.759C247.176 535.671 246.521 541.888 238.156 541.888C229.791 541.888 226.038 534.013 223.009 525.759C223.009 517.517 229.791 510.836 238.156 510.836C246.521 510.836 250.811 517.517 250.811 525.759Z" fill="#FEC0B5"/>
<path d="M234.415 530.334C236.197 531.778 236.554 531.056 237.652 530.7V530.334" stroke="#FB968F" stroke-width="0.917476"/>
<path d="M227.286 524.557C228.305 524.127 230.443 523.438 230.851 524.127" stroke="black" stroke-width="0.917476"/>
<path d="M239.762 524.196C242.257 523.474 242.143 523.452 244.537 523.902" stroke="black" stroke-width="0.917476"/>
<ellipse cx="242.142" cy="526.24" rx="0.598536" ry="0.584409" fill="black"/>
<ellipse cx="202.222" cy="537.794" rx="0.598536" ry="0.584409" fill="black"/>
<ellipse cx="229.311" cy="526.585" rx="0.598536" ry="0.584409" fill="black"/>
<path d="M221.94 549.831C219.944 551.276 211.603 567.283 207.683 575.106H267.92L260.078 553.081L253.662 544.415L231.563 540.805C229.187 543.212 223.936 548.387 221.94 549.831Z" fill="#CDD10C"/>
<path d="M231.92 543.693C233.061 543.693 231.445 540.564 230.494 538.999H245.108L249.029 541.166L236.91 563.913C234.653 560.543 230.779 543.693 231.92 543.693Z" fill="#FEC0B5" stroke="#FEC0B5" stroke-width="0.917476"/>
<path d="M229.781 519.863C227.785 517.841 228.95 514.206 229.781 512.642C223.366 516.974 223.366 525.64 223.366 527.806C223.366 529.54 229.068 537.916 231.92 541.888C228.712 545.258 222.296 551.637 222.296 550.193C222.296 548.387 225.861 547.304 226.573 542.61C227.286 537.916 223.365 534.667 222.296 529.251C221.227 523.835 221.94 514.808 226.573 510.114C231.207 505.42 238.336 508.309 242.613 509.031C246.89 509.753 249.385 514.447 251.524 519.863C253.641 525.225 254.011 532.358 254.364 539.157L254.375 539.361C254.603 543.757 257.466 549.339 258.837 551.737C258.897 551.825 258.955 551.912 259.009 551.998C259.905 553.425 259.605 553.081 258.837 551.737C256.116 547.765 247.231 542.005 246.534 547.304C245.999 551.363 244.693 544.648 244.726 545.565C244.734 545.662 244.742 545.76 244.751 545.86C244.736 545.723 244.728 545.626 244.726 545.565C244.092 537.915 246.191 537.848 247.246 532.5C248.316 527.084 245.108 523.835 241.544 523.835C237.979 523.835 236.197 519.863 236.197 521.668C236.197 523.113 237.623 523.714 238.336 523.835C238.692 524.196 238.763 524.701 236.197 523.835C233.631 522.968 232.276 519.381 231.92 517.697C230.494 519.43 232.514 522.511 233.702 523.835L229.781 519.863Z" fill="white"/>
<path d="M244.751 545.86C244.039 537.916 246.177 537.916 247.246 532.5C248.316 527.084 245.108 523.835 241.544 523.835C237.979 523.835 236.197 519.863 236.197 521.668C236.197 523.113 237.623 523.714 238.336 523.835C238.692 524.196 238.763 524.701 236.197 523.835C233.631 522.968 232.276 519.381 231.92 517.697C230.494 519.43 232.514 522.511 233.702 523.835C233.227 523.353 231.777 521.885 229.781 519.863C227.785 517.841 228.95 514.206 229.781 512.642C223.366 516.974 223.366 525.64 223.366 527.806C223.366 529.54 229.068 537.916 231.92 541.888C228.712 545.258 222.296 551.637 222.296 550.193C222.296 548.387 225.861 547.304 226.573 542.61C227.286 537.916 223.365 534.667 222.296 529.251C221.227 523.835 221.94 514.808 226.573 510.114C231.207 505.42 238.336 508.309 242.613 509.031C246.89 509.753 249.385 514.447 251.524 519.863C253.662 525.279 254.019 532.5 254.375 539.361C254.731 546.221 261.504 555.97 259.009 551.998C256.514 548.026 247.246 541.888 246.534 547.304C245.963 551.637 244.514 543.693 244.751 545.86ZM244.751 545.86C245.322 552.215 244.395 544.054 244.751 545.86Z" stroke="white" stroke-width="0.917476"/>
<path d="M332.437 546.356C328.692 546.159 329.42 543.647 330.252 542.415L343.359 541.43C343.983 542.333 345.044 544.386 344.295 545.371C343.359 546.603 337.118 546.603 332.437 546.356Z" fill="#FEC0B5" stroke="#FEC0B5" stroke-width="0.917476"/>
<path d="M324.303 522.667C325.659 520.676 327.014 520.676 329.725 521.339" stroke="black" stroke-width="0.917476"/>
<path d="M344.379 545.754C335.211 548.608 330.292 546.468 328.979 545.041C309.979 554.067 314.969 565.983 312.117 574.648H365.151C365.509 574.648 364.799 574.194 364.513 572.482C364.155 570.342 358.346 550.748 352.258 548.251C347.387 546.254 344.976 545.754 344.379 545.754Z" fill="#0E3959" stroke="#0E3959" stroke-width="0.917476"/>
<path d="M349.543 527.944C345.433 539.571 345.508 542.152 336.051 542.152C326.593 542.152 323.492 535.46 321.028 525.423C322.436 513.953 326.593 508.934 336.051 508.934C345.67 510.368 349.543 518.276 349.543 527.944Z" fill="#FEC0B5"/>
<path d="M332.436 528.907C334.063 529.969 336.307 529.132 336.533 528.911" stroke="#FB968F" stroke-width="0.917476"/>
<path d="M325.232 520.71C326.251 519.677 328.054 519.557 329.268 520.71" stroke="black" stroke-width="0.917476"/>
<path d="M338.551 520.992C340.569 519.48 338.954 519.89 342.183 519.89" stroke="black" stroke-width="0.917476"/>
<ellipse cx="341.247" cy="524.261" rx="0.677755" ry="0.663704" fill="black"/>
<path d="M319.602 524.481C319.602 521.968 321.522 524.481 321.522 524.84L323.167 527.711C322.71 528.788 321.741 531.013 321.522 531.301C321.247 531.66 319.602 526.993 319.602 524.481Z" fill="#FEC0B5" stroke="#FEC0B5" stroke-width="0.917476"/>
<path d="M351.681 524.099C351.681 521.571 349.186 524.099 349.186 524.46L347.047 527.348C347.642 528.432 348.901 530.67 349.186 530.959C349.543 531.32 351.681 526.626 351.681 524.099Z" fill="#FEC0B5" stroke="#FEC0B5" stroke-width="0.917476"/>
<path d="M252.237 459.589C252.237 456.848 249.934 459.589 249.934 459.981L247.96 463.113C248.508 464.288 249.67 466.716 249.934 467.029C250.263 467.421 252.237 462.33 252.237 459.589Z" fill="#C97A6C" stroke="#C97A6C" stroke-width="0.917476"/>
<path d="M218.019 459.589C218.019 456.848 219.938 459.589 219.938 459.981L221.583 463.113C221.127 464.288 220.158 466.716 219.938 467.029C219.664 467.421 218.019 462.33 218.019 459.589Z" fill="#C97A6C" stroke="#C97A6C" stroke-width="0.917476"/>
<ellipse cx="327.692" cy="524.261" rx="0.677755" ry="0.663704" fill="black"/>
<path d="M328.221 534.083C326.044 534.083 323.944 532.213 323.167 531.278C324.1 538.757 329.777 543.432 332.499 544.834C333.795 544.99 337.087 545.208 339.887 544.834C343.386 544.367 341.442 543.899 343.775 542.965C345.641 542.217 347.922 533.927 348.83 529.876L344.164 532.681C340.275 535.018 339.498 533.148 337.942 532.681C336.387 532.213 334.054 532.681 332.499 533.148C330.943 533.616 330.943 534.083 328.221 534.083Z" fill="#9C6B3E" stroke="#9C6B3E" stroke-width="0.917476"/>
<path d="M338.147 534.652C336.936 534.242 336.936 533.832 332.9 535.062C332.9 535.335 333.304 535.882 334.918 535.882C336.936 535.882 339.358 535.062 338.147 534.652Z" fill="#FEC0B5" stroke="#FEC0B5" stroke-width="0.917476"/>
<path d="M337.451 510.384C333.957 507.55 330.039 508.81 328.715 511.171C328.054 510.515 326.889 511.959 325.936 511.959C324.745 511.959 323.157 516.682 322.363 518.65C321.569 520.618 321.966 524.948 320.775 523.374C319.822 522.114 319.319 524.161 319.186 525.342L318.789 524.948C318.26 524.686 317.36 523.846 317.995 522.586C318.789 521.012 318.392 518.65 317.201 517.469C316.01 516.288 318.789 510.384 320.775 506.448C322.363 503.299 326.466 503.824 328.319 504.48C327.657 505.267 327.524 506.054 332.289 502.905C338.245 498.969 334.274 502.512 344.995 505.661C355.715 508.81 350.553 514.714 351.744 517.469C352.697 519.674 353.994 520.225 354.524 520.225C354.391 520.487 353.888 521.169 352.935 521.799C351.744 522.586 351.347 520.618 351.744 522.586C352.062 524.161 354.259 523.767 355.318 523.374C354.127 524.03 351.188 524.948 348.965 523.374C346.186 521.406 348.171 518.65 344.995 518.65C341.818 518.65 341.818 513.927 337.451 510.384Z" fill="#9C6B3E" stroke="#9C6B3E" stroke-width="0.917476"/>
<path d="M159.068 592.575H34.7211C31.9098 592.575 29.7599 595.081 30.187 597.86L46.9357 706.823C47.2797 709.061 49.1905 710.713 51.4549 710.713H144.203C145.225 710.713 156.826 638.237 163.6 597.905C164.07 595.105 161.908 592.575 159.068 592.575Z" fill="#A3ACFF"/>
<path d="M83.3175 567.115C77.2645 545.218 63.2358 501.63 55.545 502.444C46.5433 503.398 7.57239 575.785 0.894545 596.283C0.579498 597.464 0.280864 598.606 0 599.704C0.135963 598.829 0.440662 597.676 0.894545 596.283C8.56735 567.504 25.978 515.249 33.6474 505.5C40.0565 497.352 46.9996 485.131 63.0222 492.769C66.5828 494.806 76.0539 507.027 85.4538 539.617C83.3175 519.758 72.4221 473.725 45.9314 448.468C59.2836 458.991 87.5902 489.51 93.9992 527.396C93.8212 500.407 91.8629 443.885 85.4538 433.7C84.3857 424.365 77.763 403.555 59.8177 395C76.3344 399.233 108.265 431.507 104.177 526.704C104.505 522.724 107.581 513.932 118.033 505.5C115.185 510.931 109.381 526.581 108.954 545.728V548.783C113.404 532.488 128.608 497.352 153.817 487.168C165.923 480.888 196.33 475.761 221.112 505.5C202.063 492.599 157.983 477.085 134.056 518.23L132.453 521.285C134.234 519.248 138.862 515.175 143.135 515.175C148.476 515.175 162.362 540.126 161.828 558.458C157.734 545.897 148.262 521.591 143.135 524.85C141.355 524.001 135.658 527.192 127.113 546.746C116.431 571.188 114.294 574.244 114.294 576.28C114.294 577.91 115.007 578.317 115.363 578.317C115.897 578.317 117.072 578.623 117.499 579.845C118.033 581.373 120.169 580.354 120.169 579.845C120.169 579.336 131.385 566.605 141.533 584.428C151.681 602.25 147.942 724.462 145.271 731.591C142.957 698.831 138.008 628.424 136.726 608.87C135.124 584.428 131.385 579.336 123.374 587.483C124.976 604.627 127.967 638.812 127.113 638.405C126.044 637.895 119.082 584.955 115.363 588.502C112.9 590.85 113.226 591.872 113.226 593.594H110.556H89.1924C88.3023 588.671 85.4538 576.28 83.3175 576.28C80.647 576.28 79.0448 576.79 79.5789 578.317C80.113 579.845 85.4538 593.594 85.4538 593.594H75.8403C73.6382 593.594 73.1698 629.748 71.0335 657.246C68.8971 684.743 68.3631 749.923 68.3631 772.328C68.3631 794.734 61.4199 635.349 63.5563 611.416C65.6926 587.483 65.6926 584.86 65.6926 579.845C65.6926 578.827 57.1472 569.661 43.261 598.177C30.7787 623.81 25.2012 702.52 25.3647 725.941C25.7885 731.402 25.9748 733.851 25.6361 731.591C25.4742 730.51 25.3831 728.575 25.3647 725.941C23.7837 705.566 18.8971 643.265 25.6361 627.202C28.1286 612.774 35.8906 581.984 46.9996 574.244C58.1086 566.504 67.6509 571.019 71.0335 574.244C72.4577 571.019 76.9084 565.078 83.3175 567.115Z" fill="#9ED10C"/>
<path d="M83.3175 567.115C77.2645 545.218 63.2358 501.63 55.545 502.444C46.5433 503.398 7.57239 575.785 0.894545 596.283C0.579498 597.464 0.280864 598.606 0 599.704C0.135963 598.829 0.440662 597.676 0.894545 596.283C8.56735 567.504 25.978 515.249 33.6474 505.5C40.0565 497.352 46.9996 485.131 63.0222 492.769C66.5828 494.806 76.0539 507.027 85.4538 539.617C83.3175 519.758 72.4221 473.725 45.9314 448.468C59.2836 458.991 87.5902 489.51 93.9992 527.396C93.8212 500.407 91.8629 443.885 85.4538 433.7C84.3857 424.365 77.763 403.555 59.8177 395C76.3344 399.233 108.265 431.507 104.177 526.704C104.505 522.724 107.581 513.932 118.033 505.5C115.185 510.931 109.381 526.581 108.954 545.728V548.783C113.404 532.488 128.608 497.352 153.817 487.168C165.923 480.888 196.33 475.761 221.112 505.5C202.063 492.599 157.983 477.085 134.056 518.23L132.453 521.285C134.234 519.248 138.862 515.175 143.135 515.175C148.476 515.175 162.362 540.126 161.828 558.458C157.734 545.897 148.262 521.591 143.135 524.85C141.355 524.001 135.658 527.192 127.113 546.746C116.431 571.188 114.294 574.244 114.294 576.28C114.294 577.91 115.007 578.317 115.363 578.317C115.897 578.317 117.072 578.623 117.499 579.845C118.033 581.373 120.169 580.354 120.169 579.845C120.169 579.336 131.385 566.605 141.533 584.428C151.681 602.25 147.942 724.462 145.271 731.591C142.957 698.831 138.008 628.424 136.726 608.87C135.124 584.428 131.385 579.336 123.374 587.483C124.976 604.627 127.967 638.812 127.113 638.405C126.044 637.895 119.082 584.955 115.363 588.502C112.9 590.85 113.226 591.872 113.226 593.594H110.556H89.1924C88.3023 588.671 85.4538 576.28 83.3175 576.28C80.647 576.28 79.0448 576.79 79.5789 578.317C80.113 579.845 85.4538 593.594 85.4538 593.594H75.8403C73.6382 593.594 73.1698 629.748 71.0335 657.246C68.8971 684.743 68.3631 749.923 68.3631 772.328C68.3631 794.734 61.4199 635.349 63.5563 611.416C65.6926 587.483 65.6926 584.86 65.6926 579.845C65.6926 578.827 57.1472 569.661 43.261 598.177C30.7787 623.81 25.2012 702.52 25.3647 725.941C25.7885 731.402 25.9748 733.851 25.6361 731.591C25.4742 730.51 25.3831 728.575 25.3647 725.941C23.7837 705.566 18.8971 643.265 25.6361 627.202C28.1286 612.774 35.8906 581.984 46.9996 574.244C58.1086 566.504 67.6509 571.019 71.0335 574.244C72.4577 571.019 76.9084 565.078 83.3175 567.115Z" fill="url(#paint1_linear)"/>
<rect x="483" y="701.55" width="86.3371" height="4.95605" rx="2.47803" fill="#0E3959"/>
<path d="M516.488 636.573C510.385 644.965 512.312 644.965 526.125 662.072C530.194 662.072 536.533 660.845 529.338 655.939C520.343 649.806 534.156 646.579 538.332 636.573C542.508 626.567 534.156 627.213 526.125 617.207C519.701 609.203 528.802 597.734 534.156 593C525.804 599.348 511.284 613.721 520.022 620.435C530.944 628.827 522.592 628.181 516.488 636.573Z" fill="white"/>
<path d="M556.61 711.132H495.159C493.718 711.132 492.4 710.316 491.758 709.025C490.5 706.499 492.338 703.532 495.159 703.532H556.61C559.633 703.532 561.445 706.89 559.787 709.416C559.085 710.487 557.891 711.132 556.61 711.132Z" fill="#0E3959"/>
<path d="M557.053 654.467C559.587 654.467 561.653 656.523 561.517 659.053C560.821 671.964 557.203 684.136 551.251 693.367C544.599 703.684 535.576 709.479 526.169 709.479C516.761 709.479 507.738 703.684 501.086 693.367C495.134 684.136 491.516 671.964 490.82 659.053C490.684 656.523 492.75 654.467 495.284 654.467L526.169 654.467H557.053Z" fill="#0E3959"/>
<path d="M560.302 659.754C563.648 659.424 571.077 660.514 574.022 667.518C576.967 674.523 571.568 682.992 568.5 686.351C566.995 687.893 562.845 691.506 558.294 693.62C553.743 695.735 549.036 695.052 547.251 694.446L552.81 689.271C552.83 689.165 552.969 689.063 553.107 688.995L552.81 689.271C552.782 689.421 552.991 689.578 553.776 689.655C555.45 689.821 562.477 687.177 566.158 681.395C569.839 675.613 570.174 673.3 569.337 668.51C569.058 667.078 566.961 664.314 560.804 664.71C554.646 665.106 555.673 663.003 556.955 661.902L559.8 659.754H560.302Z" fill="#0E3959"/>
<path d="M518.639 665.536H510.608L507.094 670.162V686.021H522.488V669.831L518.639 665.536Z" fill="#F9F7CF"/>
<ellipse cx="515.125" cy="668.179" rx="1.6732" ry="1.65202" fill="#0E3959"/>
<path d="M515.677 668.057L516.734 654.943C516.769 654.509 516.425 654.137 515.99 654.137C515.597 654.137 515.272 654.441 515.245 654.832L514.338 667.957C514.312 668.345 514.619 668.675 515.008 668.675C515.358 668.675 515.649 668.406 515.677 668.057Z" fill="white"/>
<defs>
<filter id="filter0_d" x="440.327" y="494.38" width="104.341" height="38.9574" filterUnits="userSpaceOnUse" color-interpolation-filters="sRGB">
<feFlood flood-opacity="0" result="BackgroundImageFix"/>
<feColorMatrix in="SourceAlpha" type="matrix" values="0 0 0 0 0 0 0 0 0 0 0 0 0 0 0 0 0 0 127 0"/>
<feOffset dy="3.6699"/>
<feGaussianBlur stdDeviation="1.83495"/>
<feColorMatrix type="matrix" values="0 0 0 0 0 0 0 0 0 0 0 0 0 0 0 0 0 0 0.1 0"/>
<feBlend mode="normal" in2="BackgroundImageFix" result="effect1_dropShadow"/>
<feBlend mode="normal" in="SourceGraphic" in2="effect1_dropShadow" result="shape"/>
</filter>
<filter id="filter1_d" x="440.327" y="494.38" width="104.341" height="38.9574" filterUnits="userSpaceOnUse" color-interpolation-filters="sRGB">
<feFlood flood-opacity="0" result="BackgroundImageFix"/>
<feColorMatrix in="SourceAlpha" type="matrix" values="0 0 0 0 0 0 0 0 0 0 0 0 0 0 0 0 0 0 127 0"/>
<feOffset dy="3.6699"/>
<feGaussianBlur stdDeviation="1.83495"/>
<feColorMatrix type="matrix" values="0 0 0 0 0 0 0 0 0 0 0 0 0 0 0 0 0 0 0.1 0"/>
<feBlend mode="normal" in2="BackgroundImageFix" result="effect1_dropShadow"/>
<feBlend mode="normal" in="SourceGraphic" in2="effect1_dropShadow" result="shape"/>
</filter>
<filter id="filter2_d" x="440.327" y="536.152" width="104.341" height="38.9574" filterUnits="userSpaceOnUse" color-interpolation-filters="sRGB">
<feFlood flood-opacity="0" result="BackgroundImageFix"/>
<feColorMatrix in="SourceAlpha" type="matrix" values="0 0 0 0 0 0 0 0 0 0 0 0 0 0 0 0 0 0 127 0"/>
<feOffset dy="3.6699"/>
<feGaussianBlur stdDeviation="1.83495"/>
<feColorMatrix type="matrix" values="0 0 0 0 0 0 0 0 0 0 0 0 0 0 0 0 0 0 0.1 0"/>
<feBlend mode="normal" in2="BackgroundImageFix" result="effect1_dropShadow"/>
<feBlend mode="normal" in="SourceGraphic" in2="effect1_dropShadow" result="shape"/>
</filter>
<filter id="filter3_d" x="440.327" y="536.152" width="104.341" height="38.9574" filterUnits="userSpaceOnUse" color-interpolation-filters="sRGB">
<feFlood flood-opacity="0" result="BackgroundImageFix"/>
<feColorMatrix in="SourceAlpha" type="matrix" values="0 0 0 0 0 0 0 0 0 0 0 0 0 0 0 0 0 0 127 0"/>
<feOffset dy="3.6699"/>
<feGaussianBlur stdDeviation="1.83495"/>
<feColorMatrix type="matrix" values="0 0 0 0 0 0 0 0 0 0 0 0 0 0 0 0 0 0 0.1 0"/>
<feBlend mode="normal" in2="BackgroundImageFix" result="effect1_dropShadow"/>
<feBlend mode="normal" in="SourceGraphic" in2="effect1_dropShadow" result="shape"/>
</filter>
<filter id="filter4_d" x="440.327" y="452.608" width="104.341" height="38.9574" filterUnits="userSpaceOnUse" color-interpolation-filters="sRGB">
<feFlood flood-opacity="0" result="BackgroundImageFix"/>
<feColorMatrix in="SourceAlpha" type="matrix" values="0 0 0 0 0 0 0 0 0 0 0 0 0 0 0 0 0 0 127 0"/>
<feOffset dy="3.6699"/>
<feGaussianBlur stdDeviation="1.83495"/>
<feColorMatrix type="matrix" values="0 0 0 0 0 0 0 0 0 0 0 0 0 0 0 0 0 0 0.1 0"/>
<feBlend mode="normal" in2="BackgroundImageFix" result="effect1_dropShadow"/>
<feBlend mode="normal" in="SourceGraphic" in2="effect1_dropShadow" result="shape"/>
</filter>
<filter id="filter5_d" x="440.327" y="452.608" width="104.341" height="38.9574" filterUnits="userSpaceOnUse" color-interpolation-filters="sRGB">
<feFlood flood-opacity="0" result="BackgroundImageFix"/>
<feColorMatrix in="SourceAlpha" type="matrix" values="0 0 0 0 0 0 0 0 0 0 0 0 0 0 0 0 0 0 127 0"/>
<feOffset dy="3.6699"/>
<feGaussianBlur stdDeviation="1.83495"/>
<feColorMatrix type="matrix" values="0 0 0 0 0 0 0 0 0 0 0 0 0 0 0 0 0 0 0.1 0"/>
<feBlend mode="normal" in2="BackgroundImageFix" result="effect1_dropShadow"/>
<feBlend mode="normal" in="SourceGraphic" in2="effect1_dropShadow" result="shape"/>
</filter>
<linearGradient id="paint0_linear" x1="357.384" y1="649.028" x2="357.384" y2="691.634" gradientUnits="userSpaceOnUse">
<stop stop-color="white" stop-opacity="0"/>
<stop offset="1" stop-color="#D7E1E8"/>
</linearGradient>
<linearGradient id="paint1_linear" x1="110.556" y1="395" x2="110.556" y2="774.48" gradientUnits="userSpaceOnUse">
<stop stop-color="white" stop-opacity="0"/>
<stop offset="1" stop-color="#38AE00"/>
</linearGradient>
</defs>
</svg>
