<svg width="1300" height="1100" viewBox="0 0 1643 1474" fill="none" xmlns="http://www.w3.org/2000/svg">
<path d="M1031.96 323.359C1203.57 527.87 1407.68 879.819 1160 1087.65C912.319 1295.48 600.847 1354.31 429.242 1149.79C257.637 945.284 53.5208 593.335 301.202 385.506C548.883 177.676 860.355 118.848 1031.96 323.359Z" fill="#F9F7CF"/>
<path d="M1091 692H1278.22V928H1091V692Z" fill="#B1DCFF"/>
<path d="M1303.78 692H1491V928H1303.78V692Z" fill="#B1DCFF"/>
<path fill-rule="evenodd" clip-rule="evenodd" d="M1091.89 669.672H1274.86L1275.6 594.448H1169.26V626.521H1164.19V594.448H1095.06C1095.56 591.893 1095.69 591.448 1095.69 591.545H1164.19V586.284H1096.96C1097 586.038 1097.04 585.806 1097.07 585.59C1090.57 609.784 1088.27 637.668 1091.89 669.672ZM1097.69 583.369H1164.19V578.12H1099.25C1098.71 579.85 1098.19 581.599 1097.69 583.369ZM1100.19 575.205H1164.19V569.957H1102.03C1102.04 569.925 1102.05 569.893 1102.07 569.862C1101.42 571.621 1100.79 573.402 1100.19 575.205ZM1106.01 560.043H1164.19V549.547H1111.02C1109.26 552.948 1107.58 556.447 1106.01 560.043ZM1116.4 539.917C1116.48 539.809 1116.56 539.714 1116.62 539.634H1164.19V528.554H1123.91C1124.48 527.721 1125.02 526.947 1125.53 526.229C1122.32 530.588 1119.27 535.148 1116.4 539.917ZM1131.02 519.154C1131.24 518.921 1131.41 518.751 1131.52 518.641H1164.19V507.561H1141.36C1141.6 507.302 1141.84 507.045 1142.09 506.788C1138.26 510.697 1134.56 514.816 1131.02 519.154ZM1149.96 499.196C1150.71 498.541 1151.35 498.012 1151.82 497.648H1164.19V487.443C1164.28 487.36 1164.37 487.277 1164.46 487.195C1159.52 490.918 1154.66 494.914 1149.96 499.196ZM1167.4 485.026C1167.86 484.737 1168.27 484.488 1168.63 484.289L1177.19 478.341C1173.9 480.458 1170.63 482.685 1167.4 485.026ZM1178.92 477.239C1184.69 473.604 1190.53 470.304 1196.36 467.322L1276.86 466.744L1276.76 477.239H1178.92ZM1276.66 487.152H1169.26V497.648H1276.45V507.561H1169.26V518.641H1276.35L1276.66 487.152ZM1276.25 528.554H1169.26V539.634H1276.14L1276.25 528.554ZM1276.04 549.547H1169.26V560.043H1275.81V569.957H1169.26V575.205H1275.79L1276.04 549.547ZM1275.76 578.12H1169.26V583.369H1275.71L1275.76 578.12ZM1275.68 586.284H1169.26V591.545H1275.63L1275.68 586.284ZM1276.96 456.829L1277.08 444C1262.42 444.593 1242.01 448.521 1220.04 456.829H1276.96ZM1216.73 458.109C1214.79 458.876 1212.84 459.678 1210.89 460.514C1212.19 459.972 1213.45 459.456 1214.62 458.977L1214.62 458.977L1214.62 458.977L1214.62 458.977L1214.62 458.977C1215.37 458.671 1216.07 458.381 1216.73 458.109Z" fill="#B1DCFF"/>
<path fill-rule="evenodd" clip-rule="evenodd" d="M1489.08 669.672H1303.44L1302.68 594.448H1485.87C1485.35 591.893 1485.22 591.448 1485.22 591.545H1302.66L1302.6 586.284H1483.94C1483.9 586.035 1483.86 585.8 1483.82 585.581C1490.42 609.777 1492.75 637.664 1489.08 669.672ZM1483.2 583.369H1302.57L1302.52 578.121H1481.61C1482.16 579.85 1482.69 581.599 1483.2 583.369ZM1302.24 549.547L1302.49 575.205H1480.65C1480.04 573.392 1479.41 571.601 1478.74 569.832L1478.79 569.957H1302.47V560.044H1474.75C1473.16 556.447 1471.46 552.948 1469.67 549.547H1302.24ZM1302.14 539.634L1302.03 528.554H1456.59C1456 527.712 1455.45 526.93 1454.93 526.205C1458.19 530.572 1461.3 535.142 1464.21 539.922C1464.13 539.812 1464.05 539.716 1463.99 539.634H1302.14ZM1301.93 518.641L1301.61 487.152H1415.39C1420.44 490.892 1425.38 494.909 1430.18 499.215C1429.41 498.551 1428.76 498.016 1428.27 497.648H1301.83V507.561H1438.89C1438.63 507.29 1438.37 507.019 1438.11 506.75C1442.01 510.672 1445.77 514.806 1449.38 519.161C1449.16 518.924 1448.99 518.752 1448.87 518.641H1301.93ZM1301.41 466.744L1301.51 477.239H1400.78C1394.93 473.604 1389 470.304 1383.09 467.322L1301.41 466.744ZM1301.31 456.829H1359.06C1336.77 448.521 1316.06 444.593 1301.18 444L1301.31 456.829ZM1364.55 458.976L1364.56 458.977L1364.56 458.977C1365.75 459.459 1367.04 459.979 1368.37 460.525C1366.37 459.682 1364.38 458.874 1362.39 458.101C1363.07 458.375 1363.79 458.667 1364.55 458.976ZM1402.52 478.334L1415.18 487.002C1411.02 483.927 1406.79 481.041 1402.52 478.334Z" fill="#B1DCFF"/>
<path d="M1193.31 597.578C1223.84 605.407 1193.31 621.032 1259.48 621.032C1264.89 621.032 1270.07 621.199 1275 621.5V651H1090.3C1089.54 640.82 1090.4 626.725 1090.93 620.95C1139.19 618.855 1114.06 577.253 1193.31 597.578Z" fill="white"/>
<path d="M1304 866C1364.22 867.855 1391.48 890.448 1394 896H1304V866Z" fill="white"/>
<path d="M1208 777C1208 766.98 1218.65 746.94 1261.23 746.94C1268.01 746.94 1273.47 746.217 1278 745V777H1208Z" fill="white"/>
<path d="M1123 865.524C1176.6 865.524 1148.01 820.472 1229.47 841.673C1256.87 848.803 1235.19 862.292 1278 865.031V896H1091V870.775C1098.84 867.608 1109.27 865.524 1123 865.524Z" fill="white"/>
<path d="M1368.07 722.673C1398.61 730.634 1368.07 746.524 1434.27 746.524C1457.55 746.524 1476.33 749.571 1491 753.776V777H1304V727.092C1313.77 718.244 1326.72 711.891 1368.07 722.673Z" fill="white"/>
<path d="M1303 625C1339 632.095 1356.03 646.697 1358 651H1303.44L1303 625Z" fill="white"/>
<rect x="1390.67" y="1092.83" width="70.0495" height="54.5114" fill="#D7E1E8"/>
<rect x="1224" y="867" width="404.194" height="225.833" rx="4.58738" fill="#082134"/>
<rect x="1233" y="878" width="383" height="162" rx="4.58738" fill="#0E3959"/>
<path d="M1224 1056.15C1224 1053.61 1226.05 1051.56 1228.59 1051.56H1623.61C1626.14 1051.56 1628.19 1053.61 1628.19 1056.15V1088.25C1628.19 1090.78 1626.14 1092.83 1623.61 1092.83H1228.59C1226.05 1092.83 1224 1090.78 1224 1088.25V1056.15Z" fill="#D7E1E8"/>
<path d="M1433.23 1072.2C1433.23 1076.18 1429.89 1079.46 1425.69 1079.46C1421.5 1079.46 1418.16 1076.18 1418.16 1072.2C1418.16 1068.22 1421.5 1064.94 1425.69 1064.94C1429.89 1064.94 1433.23 1068.22 1433.23 1072.2Z" fill="#D7E1E8" stroke="#B9C8D4" stroke-width="1.83495"/>
<rect x="1366.51" y="1147.34" width="121.58" height="7.78734" fill="#D7E1E8"/>
<path d="M1460.67 1093.03V1135.63L1390.1 1093.03H1460.67Z" fill="#8FA7B9" fill-opacity="0.5"/>
<path d="M1460.67 1093.03V1135.63L1390.1 1093.03H1460.67Z" fill="url(#paint0_linear)"/>
<g filter="url(#filter0_d)">
<g filter="url(#filter1_d)">
<rect x="1512" y="938.38" width="97.0009" height="31.6176" rx="4.58738" fill="#125D94"/>
</g>
<rect x="1584.36" y="942.303" width="21.5558" height="4.6157" rx="2.30785" fill="#EAE7FD"/>
</g>
<g filter="url(#filter2_d)">
<g filter="url(#filter3_d)">
<rect x="1512" y="980.152" width="97.0009" height="31.6176" rx="4.58738" fill="#125D94"/>
</g>
<rect x="1584.36" y="984.075" width="21.5558" height="4.6157" rx="2.30785" fill="#D2EDB8"/>
</g>
<g filter="url(#filter4_d)">
<g filter="url(#filter5_d)">
<rect x="1512" y="896.608" width="97.0009" height="31.6176" rx="4.58738" fill="#125D94"/>
</g>
<rect x="1584.36" y="900.531" width="21.5557" height="4.6157" rx="2.30785" fill="#F9F7CF"/>
</g>
<rect x="1256.79" y="896.607" width="106.93" height="57.7707" rx="4.83924" fill="#DAECF9"/>
<rect x="1369.42" y="896.607" width="106.93" height="57.7707" rx="4.83924" fill="#DBF1C5"/>
<path d="M1256.79 965.716C1256.79 963.044 1258.96 960.877 1261.63 960.877H1358.88C1361.55 960.877 1363.72 963.044 1363.72 965.716V1013.81C1363.72 1016.48 1361.55 1018.65 1358.88 1018.65H1261.63C1258.96 1018.65 1256.79 1016.48 1256.79 1013.81V965.716Z" fill="#EAE7FD"/>
<rect x="1369.42" y="960.877" width="106.93" height="57.7707" rx="4.83924" fill="#F9F7CF"/>
<path d="M1294.93 925.854C1295.84 924.74 1296.95 920.587 1297.78 919.355H1308.12C1308.74 920.258 1310.26 923.688 1311.42 925.101C1312.41 926.293 1291.95 929.518 1294.93 925.854Z" fill="#C97A6C" stroke="#C97A6C" stroke-width="0.917476"/>
<path d="M1311.68 924.771C1303.98 926.216 1297.54 925.373 1295.29 924.771C1291.96 927.058 1284.59 932.642 1281.74 936.686C1278.89 940.73 1277.23 949.926 1276.75 954.018H1336.99C1331.76 943.667 1319.38 923.327 1311.68 924.771Z" fill="#FF8484" stroke="#FF8484" stroke-width="0.917476"/>
<path d="M1291.43 902.397C1292.79 900.406 1294.14 900.406 1296.85 901.069" stroke="black" stroke-width="0.917476"/>
<path d="M1318.1 906.881C1313.83 918.392 1313.11 920.077 1304.08 923.327C1294.22 920.8 1291.14 916.466 1287.58 906.881C1286.31 895.38 1294.25 888.665 1304.08 888.665C1313.91 888.665 1317.03 897.478 1318.1 906.881Z" fill="#C97A6C"/>
<path d="M1300.99 910.328C1302.62 911.39 1304.86 910.553 1305.09 910.332" stroke="#9E6054" stroke-width="0.917476"/>
<path d="M1293.86 901.663C1295.12 900.753 1297.35 900.648 1298.85 901.663" stroke="black" stroke-width="0.917476"/>
<path d="M1305.98 902.094C1308 900.581 1306.38 900.991 1309.61 900.991" stroke="black" stroke-width="0.917476"/>
<ellipse cx="1308.38" cy="903.991" rx="0.677755" ry="0.663704" fill="black"/>
<ellipse cx="1263.17" cy="917.113" rx="0.677755" ry="0.663704" fill="black"/>
<ellipse cx="1296.68" cy="904.493" rx="0.677755" ry="0.663704" fill="black"/>
<path d="M1295.64 892.636C1290.8 891.769 1288.16 899.737 1287.44 903.829C1287.09 902.986 1286.45 900.868 1286.73 899.135C1287.09 896.969 1289.58 891.553 1293.5 887.942C1297.42 884.331 1304.55 885.776 1311.33 888.664C1318.1 891.553 1317.74 898.413 1317.74 901.301V905.634C1317.15 903.107 1315.46 897.258 1313.46 894.08C1310.97 890.108 1308.12 893.719 1303.48 894.08C1298.85 894.441 1301.7 893.719 1295.64 892.636Z" fill="black" stroke="black" stroke-width="0.917476"/>
<path d="M1402.5 929.919C1405.38 928.049 1403.7 922.127 1402.5 919.4C1406.89 918.426 1415.43 916.829 1414.48 918.231C1413.52 919.634 1416.87 925.439 1418.67 928.166C1417.87 929.53 1415.19 932.491 1410.88 933.426C1405.5 934.595 1398.91 932.257 1402.5 929.919Z" fill="#FEC0B5" stroke="#FEC0B5" stroke-width="0.917476"/>
<path d="M1400.71 930.713C1401.11 931.687 1402.62 933.635 1405.5 933.635C1409.09 933.635 1419.86 928.751 1419.26 927.582C1418.67 926.413 1439.02 935.973 1441.41 945.908C1442.76 951.497 1443.39 953.561 1443.65 954.09H1443.8C1443.8 954.263 1443.76 954.313 1443.65 954.09H1380.36C1382.55 946.228 1389.7 930.545 1400.71 930.713Z" fill="#A3ACFF"/>
<path d="M1400.71 930.713C1401.11 931.687 1402.62 933.635 1405.5 933.635C1409.09 933.635 1419.86 928.751 1419.26 927.582C1418.67 926.413 1439.02 935.973 1441.41 945.908C1443.33 953.856 1443.8 954.674 1443.8 954.09H1380.36C1382.55 946.228 1389.7 930.545 1400.71 930.713Z" stroke="#A3ACFF" stroke-width="0.917476"/>
<path d="M1397.12 903.386C1398.32 901.633 1399.51 901.633 1401.91 902.217" stroke="black" stroke-width="0.917476"/>
<path d="M1422.86 904.829C1419.26 915.309 1416.16 920.608 1407.89 920.608C1399.63 920.608 1395.92 913.556 1392.93 904.829C1392.93 896.114 1399.63 889.05 1407.89 889.05C1416.16 889.05 1422.86 896.114 1422.86 904.829Z" fill="#FEC0B5"/>
<path d="M1404.3 908.881C1405.74 909.816 1406.5 909.66 1406.69 909.465L1407.89 908.881" stroke="#FB968F" stroke-width="0.917476"/>
<path d="M1397.12 903.037C1398.32 902.452 1400.83 901.517 1401.31 902.452" stroke="black" stroke-width="0.917476"/>
<path d="M1409.69 903.037C1410.89 901.687 1412.08 902.002 1414.48 902.452" stroke="black" stroke-width="0.917476"/>
<ellipse cx="1412.08" cy="904.79" rx="0.598536" ry="0.584409" fill="black"/>
<ellipse cx="1372.16" cy="916.344" rx="0.598536" ry="0.584409" fill="black"/>
<ellipse cx="1400.11" cy="904.79" rx="0.598536" ry="0.584409" fill="black"/>
<path d="M1406.7 897.192C1403.82 897.192 1401.91 893.296 1401.31 891.348C1395.92 890.179 1392.33 903.621 1392.33 904.79C1392.33 905.725 1395.12 910.634 1396.52 912.971C1396.52 913.361 1396.28 914.023 1395.32 913.556C1394.13 912.971 1392.93 913.556 1389.94 914.14C1386.94 914.725 1383.35 908.296 1384.55 908.296C1385.75 908.296 1385.75 910.634 1388.74 910.634C1391.73 910.634 1388.74 908.296 1386.94 905.374C1385.15 902.452 1386.94 903.036 1388.74 900.114C1390.53 897.192 1387.54 893.686 1387.54 889.595C1387.54 885.504 1389.94 886.673 1393.53 886.673C1397.12 886.673 1397.72 881.413 1400.11 879.076C1402.51 876.738 1406.1 877.907 1409.69 880.829C1413.28 883.751 1416.27 881.998 1422.86 884.335C1429.44 886.673 1428.84 893.686 1427.64 896.608C1426.45 899.53 1434.23 901.283 1434.83 904.79C1435.42 908.296 1432.43 909.465 1430.04 908.296C1427.64 907.127 1425.85 911.803 1424.05 914.14C1422.26 916.478 1419.26 916.478 1418.67 914.14C1418.19 912.27 1420.06 911.023 1421.06 910.634C1421.46 909.27 1421.66 906.426 1419.26 905.958C1416.87 905.491 1413.88 901.478 1412.68 899.53C1411.88 898.751 1409.57 897.192 1406.7 897.192Z" fill="black" stroke="black" stroke-width="0.917476"/>
<path d="M1295.18 968.836C1296.38 967.082 1297.57 967.082 1299.97 967.667" stroke="black" stroke-width="0.917476"/>
<path d="M1318.81 969.759C1315.18 979.671 1314.52 985.888 1306.16 985.888C1297.79 985.888 1294.04 978.013 1291.01 969.759C1291.01 961.517 1297.79 954.836 1306.16 954.836C1314.52 954.836 1318.81 961.517 1318.81 969.759Z" fill="#FEC0B5"/>
<path d="M1302.41 974.334C1304.2 975.778 1304.55 975.056 1305.65 974.7V974.334" stroke="#FB968F" stroke-width="0.917476"/>
<path d="M1295.29 968.557C1296.3 968.127 1298.44 967.438 1298.85 968.127" stroke="black" stroke-width="0.917476"/>
<path d="M1307.76 968.196C1310.26 967.474 1310.14 967.452 1312.54 967.902" stroke="black" stroke-width="0.917476"/>
<ellipse cx="1310.14" cy="970.24" rx="0.598536" ry="0.584409" fill="black"/>
<ellipse cx="1270.22" cy="981.794" rx="0.598536" ry="0.584409" fill="black"/>
<ellipse cx="1297.31" cy="970.585" rx="0.598536" ry="0.584409" fill="black"/>
<path d="M1289.94 993.831C1287.94 995.276 1279.6 1011.28 1275.68 1019.11H1335.92L1328.08 997.081L1321.66 988.415L1299.56 984.805C1297.19 987.212 1291.94 992.387 1289.94 993.831Z" fill="#CDD10C"/>
<path d="M1299.92 987.693C1301.06 987.693 1299.44 984.564 1298.49 982.999H1313.11L1317.03 985.166L1304.91 1007.91C1302.65 1004.54 1298.78 987.693 1299.92 987.693Z" fill="#FEC0B5" stroke="#FEC0B5" stroke-width="0.917476"/>
<path d="M1297.78 963.863C1295.79 961.841 1296.95 958.206 1297.78 956.642C1291.37 960.974 1291.37 969.64 1291.37 971.806C1291.37 973.54 1297.07 981.916 1299.92 985.888C1296.71 989.258 1290.3 995.637 1290.3 994.193C1290.3 992.387 1293.86 991.304 1294.57 986.61C1295.29 981.916 1291.37 978.667 1290.3 973.251C1289.23 967.835 1289.94 958.808 1294.57 954.114C1299.21 949.42 1306.34 952.309 1310.61 953.031C1314.89 953.753 1317.38 958.447 1319.52 963.863C1321.64 969.225 1322.01 976.358 1322.36 983.157L1322.37 983.361C1322.6 987.757 1325.47 993.339 1326.84 995.737C1326.9 995.825 1326.95 995.912 1327.01 995.998C1327.9 997.425 1327.61 997.081 1326.84 995.737C1324.12 991.765 1315.23 986.005 1314.53 991.304C1314 995.363 1312.69 988.648 1312.73 989.565C1312.73 989.662 1312.74 989.76 1312.75 989.86C1312.74 989.723 1312.73 989.626 1312.73 989.565C1312.09 981.915 1314.19 981.848 1315.25 976.5C1316.32 971.084 1313.11 967.835 1309.54 967.835C1305.98 967.835 1304.2 963.863 1304.2 965.668C1304.2 967.113 1305.62 967.714 1306.34 967.835C1306.69 968.196 1306.76 968.701 1304.2 967.835C1301.63 966.968 1300.28 963.381 1299.92 961.697C1298.49 963.43 1300.51 966.511 1301.7 967.835L1297.78 963.863Z" fill="white"/>
<path d="M1312.75 989.86C1312.04 981.916 1314.18 981.916 1315.25 976.5C1316.32 971.084 1313.11 967.835 1309.54 967.835C1305.98 967.835 1304.2 963.863 1304.2 965.668C1304.2 967.113 1305.62 967.714 1306.34 967.835C1306.69 968.196 1306.76 968.701 1304.2 967.835C1301.63 966.968 1300.28 963.381 1299.92 961.697C1298.49 963.43 1300.51 966.511 1301.7 967.835C1301.23 967.353 1299.78 965.885 1297.78 963.863C1295.79 961.841 1296.95 958.206 1297.78 956.642C1291.37 960.974 1291.37 969.64 1291.37 971.806C1291.37 973.54 1297.07 981.916 1299.92 985.888C1296.71 989.258 1290.3 995.637 1290.3 994.193C1290.3 992.387 1293.86 991.304 1294.57 986.61C1295.29 981.916 1291.37 978.667 1290.3 973.251C1289.23 967.835 1289.94 958.808 1294.57 954.114C1299.21 949.42 1306.34 952.309 1310.61 953.031C1314.89 953.753 1317.38 958.447 1319.52 963.863C1321.66 969.279 1322.02 976.5 1322.37 983.361C1322.73 990.221 1329.5 999.97 1327.01 995.998C1324.51 992.026 1315.25 985.888 1314.53 991.304C1313.96 995.637 1312.51 987.693 1312.75 989.86ZM1312.75 989.86C1313.32 996.215 1312.39 988.054 1312.75 989.86Z" stroke="white" stroke-width="0.917476"/>
<path d="M1400.44 990.356C1396.69 990.159 1397.42 987.647 1398.25 986.415L1411.36 985.43C1411.98 986.333 1413.04 988.386 1412.29 989.371C1411.36 990.603 1405.12 990.603 1400.44 990.356Z" fill="#FEC0B5" stroke="#FEC0B5" stroke-width="0.917476"/>
<path d="M1392.3 966.667C1393.66 964.676 1395.01 964.676 1397.73 965.339" stroke="black" stroke-width="0.917476"/>
<path d="M1412.38 989.754C1403.21 992.608 1398.29 990.468 1396.98 989.041C1377.98 998.067 1382.97 1009.98 1380.12 1018.65H1433.15C1433.51 1018.65 1432.8 1018.19 1432.51 1016.48C1432.15 1014.34 1426.35 994.748 1420.26 992.251C1415.39 990.254 1412.98 989.754 1412.38 989.754Z" fill="#0E3959" stroke="#0E3959" stroke-width="0.917476"/>
<path d="M1417.54 971.944C1413.43 983.571 1413.51 986.152 1404.05 986.152C1394.59 986.152 1391.49 979.46 1389.03 969.423C1390.44 957.953 1394.59 952.934 1404.05 952.934C1413.67 954.368 1417.54 962.276 1417.54 971.944Z" fill="#FEC0B5"/>
<path d="M1400.44 972.907C1402.06 973.969 1404.31 973.132 1404.53 972.911" stroke="#FB968F" stroke-width="0.917476"/>
<path d="M1393.23 964.71C1394.25 963.677 1396.05 963.557 1397.27 964.71" stroke="black" stroke-width="0.917476"/>
<path d="M1406.55 964.992C1408.57 963.48 1406.95 963.89 1410.18 963.89" stroke="black" stroke-width="0.917476"/>
<ellipse cx="1409.25" cy="968.261" rx="0.677755" ry="0.663704" fill="black"/>
<path d="M1387.6 968.481C1387.6 965.968 1389.52 968.481 1389.52 968.84L1391.17 971.711C1390.71 972.788 1389.74 975.013 1389.52 975.301C1389.25 975.66 1387.6 970.993 1387.6 968.481Z" fill="#FEC0B5" stroke="#FEC0B5" stroke-width="0.917476"/>
<path d="M1419.68 968.099C1419.68 965.571 1417.19 968.099 1417.19 968.46L1415.05 971.348C1415.64 972.432 1416.9 974.67 1417.19 974.959C1417.54 975.32 1419.68 970.626 1419.68 968.099Z" fill="#FEC0B5" stroke="#FEC0B5" stroke-width="0.917476"/>
<path d="M1320.24 903.589C1320.24 900.848 1317.93 903.589 1317.93 903.981L1315.96 907.113C1316.51 908.288 1317.67 910.716 1317.93 911.029C1318.26 911.421 1320.24 906.33 1320.24 903.589Z" fill="#C97A6C" stroke="#C97A6C" stroke-width="0.917476"/>
<path d="M1286.02 903.589C1286.02 900.848 1287.94 903.589 1287.94 903.981L1289.58 907.113C1289.13 908.288 1288.16 910.716 1287.94 911.029C1287.66 911.421 1286.02 906.33 1286.02 903.589Z" fill="#C97A6C" stroke="#C97A6C" stroke-width="0.917476"/>
<ellipse cx="1395.69" cy="968.261" rx="0.677755" ry="0.663704" fill="black"/>
<path d="M1396.22 978.083C1394.04 978.083 1391.94 976.213 1391.17 975.278C1392.1 982.757 1397.78 987.432 1400.5 988.834C1401.79 988.99 1405.09 989.208 1407.89 988.834C1411.39 988.367 1409.44 987.899 1411.77 986.965C1413.64 986.217 1415.92 977.927 1416.83 973.876L1412.16 976.681C1408.28 979.018 1407.5 977.148 1405.94 976.681C1404.39 976.213 1402.05 976.681 1400.5 977.148C1398.94 977.616 1398.94 978.083 1396.22 978.083Z" fill="#9C6B3E" stroke="#9C6B3E" stroke-width="0.917476"/>
<path d="M1406.15 978.652C1404.94 978.242 1404.94 977.832 1400.9 979.062C1400.9 979.335 1401.3 979.882 1402.92 979.882C1404.94 979.882 1407.36 979.062 1406.15 978.652Z" fill="#FEC0B5" stroke="#FEC0B5" stroke-width="0.917476"/>
<path d="M1405.45 954.384C1401.96 951.55 1398.04 952.81 1396.72 955.171C1396.05 954.515 1394.89 955.959 1393.94 955.959C1392.74 955.959 1391.16 960.682 1390.36 962.65C1389.57 964.618 1389.97 968.948 1388.77 967.374C1387.82 966.114 1387.32 968.161 1387.19 969.342L1386.79 968.948C1386.26 968.686 1385.36 967.846 1386 966.586C1386.79 965.012 1386.39 962.65 1385.2 961.469C1384.01 960.288 1386.79 954.384 1388.77 950.448C1390.36 947.299 1394.47 947.824 1396.32 948.48C1395.66 949.267 1395.52 950.054 1400.29 946.905C1406.24 942.969 1402.27 946.512 1412.99 949.661C1423.71 952.81 1418.55 958.714 1419.74 961.469C1420.7 963.674 1421.99 964.225 1422.52 964.225C1422.39 964.487 1421.89 965.169 1420.94 965.799C1419.74 966.586 1419.35 964.618 1419.74 966.586C1420.06 968.161 1422.26 967.767 1423.32 967.374C1422.13 968.03 1419.19 968.948 1416.96 967.374C1414.19 965.406 1416.17 962.65 1412.99 962.65C1409.82 962.65 1409.82 957.927 1405.45 954.384Z" fill="#9C6B3E" stroke="#9C6B3E" stroke-width="0.917476"/>
<path d="M1227.07 1036.58H1102.72C1099.91 1036.58 1097.76 1039.08 1098.19 1041.86L1114.94 1150.82C1115.28 1153.06 1117.19 1154.71 1119.45 1154.71H1212.2C1213.22 1154.71 1224.83 1082.24 1231.6 1041.91C1232.07 1039.1 1229.91 1036.58 1227.07 1036.58Z" fill="#A3ACFF"/>
<path d="M1151.32 1011.11C1145.26 989.218 1131.24 945.63 1123.54 946.444C1114.54 947.398 1075.57 1019.79 1068.89 1040.28C1068.58 1041.46 1068.28 1042.61 1068 1043.7C1068.14 1042.83 1068.44 1041.68 1068.89 1040.28C1076.57 1011.5 1093.98 959.249 1101.65 949.5C1108.06 941.352 1115 929.131 1131.02 936.769C1134.58 938.806 1144.05 951.027 1153.45 983.617C1151.32 963.758 1140.42 917.725 1113.93 892.468C1127.28 902.991 1155.59 933.51 1162 971.396C1161.82 944.407 1159.86 887.885 1153.45 877.7C1152.39 868.365 1145.76 847.555 1127.82 839C1144.33 843.233 1176.26 875.507 1172.18 970.704C1172.5 966.724 1175.58 957.932 1186.03 949.5C1183.18 954.931 1177.38 970.581 1176.95 989.728V992.783C1181.4 976.488 1196.61 941.352 1221.82 931.168C1233.92 924.888 1264.33 919.761 1289.11 949.5C1270.06 936.599 1225.98 921.085 1202.06 962.23L1200.45 965.285C1202.23 963.248 1206.86 959.175 1211.14 959.175C1216.48 959.175 1230.36 984.126 1229.83 1002.46C1225.73 989.897 1216.26 965.591 1211.14 968.85C1209.35 968.001 1203.66 971.192 1195.11 990.746C1184.43 1015.19 1182.29 1018.24 1182.29 1020.28C1182.29 1021.91 1183.01 1022.32 1183.36 1022.32C1183.9 1022.32 1185.07 1022.62 1185.5 1023.84C1186.03 1025.37 1188.17 1024.35 1188.17 1023.84C1188.17 1023.34 1199.39 1010.61 1209.53 1028.43C1219.68 1046.25 1215.94 1168.46 1213.27 1175.59C1210.96 1142.83 1206.01 1072.42 1204.73 1052.87C1203.12 1028.43 1199.39 1023.34 1191.37 1031.48C1192.98 1048.63 1195.97 1082.81 1195.11 1082.4C1194.04 1081.9 1187.08 1028.96 1183.36 1032.5C1180.9 1034.85 1181.23 1035.87 1181.23 1037.59H1178.56H1157.19C1156.3 1032.67 1153.45 1020.28 1151.32 1020.28C1148.65 1020.28 1147.04 1020.79 1147.58 1022.32C1148.11 1023.84 1153.45 1037.59 1153.45 1037.59H1143.84C1141.64 1037.59 1141.17 1073.75 1139.03 1101.25C1136.9 1128.74 1136.36 1193.92 1136.36 1216.33C1136.36 1238.73 1129.42 1079.35 1131.56 1055.42C1133.69 1031.48 1133.69 1028.86 1133.69 1023.84C1133.69 1022.83 1125.15 1013.66 1111.26 1042.18C1098.78 1067.81 1093.2 1146.52 1093.36 1169.94C1093.79 1175.4 1093.97 1177.85 1093.64 1175.59C1093.47 1174.51 1093.38 1172.58 1093.36 1169.94C1091.78 1149.57 1086.9 1087.27 1093.64 1071.2C1096.13 1056.77 1103.89 1025.98 1115 1018.24C1126.11 1010.5 1135.65 1015.02 1139.03 1018.24C1140.46 1015.02 1144.91 1009.08 1151.32 1011.11Z" fill="#9ED10C"/>
<path d="M1151.32 1011.11C1145.26 989.218 1131.24 945.63 1123.54 946.444C1114.54 947.398 1075.57 1019.79 1068.89 1040.28C1068.58 1041.46 1068.28 1042.61 1068 1043.7C1068.14 1042.83 1068.44 1041.68 1068.89 1040.28C1076.57 1011.5 1093.98 959.249 1101.65 949.5C1108.06 941.352 1115 929.131 1131.02 936.769C1134.58 938.806 1144.05 951.027 1153.45 983.617C1151.32 963.758 1140.42 917.725 1113.93 892.468C1127.28 902.991 1155.59 933.51 1162 971.396C1161.82 944.407 1159.86 887.885 1153.45 877.7C1152.39 868.365 1145.76 847.555 1127.82 839C1144.33 843.233 1176.26 875.507 1172.18 970.704C1172.5 966.724 1175.58 957.932 1186.03 949.5C1183.18 954.931 1177.38 970.581 1176.95 989.728V992.783C1181.4 976.488 1196.61 941.352 1221.82 931.168C1233.92 924.888 1264.33 919.761 1289.11 949.5C1270.06 936.599 1225.98 921.085 1202.06 962.23L1200.45 965.285C1202.23 963.248 1206.86 959.175 1211.14 959.175C1216.48 959.175 1230.36 984.126 1229.83 1002.46C1225.73 989.897 1216.26 965.591 1211.14 968.85C1209.35 968.001 1203.66 971.192 1195.11 990.746C1184.43 1015.19 1182.29 1018.24 1182.29 1020.28C1182.29 1021.91 1183.01 1022.32 1183.36 1022.32C1183.9 1022.32 1185.07 1022.62 1185.5 1023.84C1186.03 1025.37 1188.17 1024.35 1188.17 1023.84C1188.17 1023.34 1199.39 1010.61 1209.53 1028.43C1219.68 1046.25 1215.94 1168.46 1213.27 1175.59C1210.96 1142.83 1206.01 1072.42 1204.73 1052.87C1203.12 1028.43 1199.39 1023.34 1191.37 1031.48C1192.98 1048.63 1195.97 1082.81 1195.11 1082.4C1194.04 1081.9 1187.08 1028.96 1183.36 1032.5C1180.9 1034.85 1181.23 1035.87 1181.23 1037.59H1178.56H1157.19C1156.3 1032.67 1153.45 1020.28 1151.32 1020.28C1148.65 1020.28 1147.04 1020.79 1147.58 1022.32C1148.11 1023.84 1153.45 1037.59 1153.45 1037.59H1143.84C1141.64 1037.59 1141.17 1073.75 1139.03 1101.25C1136.9 1128.74 1136.36 1193.92 1136.36 1216.33C1136.36 1238.73 1129.42 1079.35 1131.56 1055.42C1133.69 1031.48 1133.69 1028.86 1133.69 1023.84C1133.69 1022.83 1125.15 1013.66 1111.26 1042.18C1098.78 1067.81 1093.2 1146.52 1093.36 1169.94C1093.79 1175.4 1093.97 1177.85 1093.64 1175.59C1093.47 1174.51 1093.38 1172.58 1093.36 1169.94C1091.78 1149.57 1086.9 1087.27 1093.64 1071.2C1096.13 1056.77 1103.89 1025.98 1115 1018.24C1126.11 1010.5 1135.65 1015.02 1139.03 1018.24C1140.46 1015.02 1144.91 1009.08 1151.32 1011.11Z" fill="url(#paint1_linear)"/>
<rect x="1551" y="1145.55" width="86.3371" height="4.95605" rx="2.47803" fill="#0E3959"/>
<path d="M1584.49 1080.57C1578.38 1088.97 1580.31 1088.97 1594.13 1106.07C1598.19 1106.07 1604.53 1104.85 1597.34 1099.94C1588.34 1093.81 1602.16 1090.58 1606.33 1080.57C1610.51 1070.57 1602.16 1071.21 1594.13 1061.21C1587.7 1053.2 1596.8 1041.73 1602.16 1037C1593.8 1043.35 1579.28 1057.72 1588.02 1064.43C1598.94 1072.83 1590.59 1072.18 1584.49 1080.57Z" fill="white"/>
<path d="M1624.61 1155.13H1563.16C1561.72 1155.13 1560.4 1154.32 1559.76 1153.03C1558.5 1150.5 1560.34 1147.53 1563.16 1147.53H1624.61C1627.63 1147.53 1629.45 1150.89 1627.79 1153.42C1627.08 1154.49 1625.89 1155.13 1624.61 1155.13Z" fill="#0E3959"/>
<path d="M1625.05 1098.47C1627.59 1098.47 1629.65 1100.52 1629.52 1103.05C1628.82 1115.96 1625.2 1128.14 1619.25 1137.37C1612.6 1147.68 1603.58 1153.48 1594.17 1153.48C1584.76 1153.48 1575.74 1147.68 1569.09 1137.37C1563.13 1128.14 1559.52 1115.96 1558.82 1103.05C1558.68 1100.52 1560.75 1098.47 1563.28 1098.47L1594.17 1098.47H1625.05Z" fill="#0E3959"/>
<path d="M1628.3 1103.75C1631.65 1103.42 1639.08 1104.51 1642.02 1111.52C1644.97 1118.52 1639.57 1126.99 1636.5 1130.35C1634.99 1131.89 1630.85 1135.51 1626.29 1137.62C1621.74 1139.73 1617.04 1139.05 1615.25 1138.45L1620.81 1133.27C1620.83 1133.17 1620.97 1133.06 1621.11 1132.99L1620.81 1133.27C1620.78 1133.42 1620.99 1133.58 1621.78 1133.66C1623.45 1133.82 1630.48 1131.18 1634.16 1125.4C1637.84 1119.61 1638.17 1117.3 1637.34 1112.51C1637.06 1111.08 1634.96 1108.31 1628.8 1108.71C1622.65 1109.11 1623.67 1107 1624.96 1105.9L1627.8 1103.75H1628.3Z" fill="#0E3959"/>
<path d="M1586.64 1109.54H1578.61L1575.09 1114.16V1130.02H1590.49V1113.83L1586.64 1109.54Z" fill="#F9F7CF"/>
<ellipse cx="1583.13" cy="1112.18" rx="1.6732" ry="1.65202" fill="#0E3959"/>
<path d="M1583.68 1112.06L1584.73 1098.94C1584.77 1098.51 1584.43 1098.14 1583.99 1098.14C1583.6 1098.14 1583.27 1098.44 1583.24 1098.83L1582.34 1111.96C1582.31 1112.35 1582.62 1112.67 1583.01 1112.67C1583.36 1112.67 1583.65 1112.41 1583.68 1112.06Z" fill="white"/>
<defs>
<filter id="filter0_d" x="1508.33" y="938.38" width="104.341" height="38.9574" filterUnits="userSpaceOnUse" color-interpolation-filters="sRGB">
<feFlood flood-opacity="0" result="BackgroundImageFix"/>
<feColorMatrix in="SourceAlpha" type="matrix" values="0 0 0 0 0 0 0 0 0 0 0 0 0 0 0 0 0 0 127 0"/>
<feOffset dy="3.6699"/>
<feGaussianBlur stdDeviation="1.83495"/>
<feColorMatrix type="matrix" values="0 0 0 0 0 0 0 0 0 0 0 0 0 0 0 0 0 0 0.1 0"/>
<feBlend mode="normal" in2="BackgroundImageFix" result="effect1_dropShadow"/>
<feBlend mode="normal" in="SourceGraphic" in2="effect1_dropShadow" result="shape"/>
</filter>
<filter id="filter1_d" x="1508.33" y="938.38" width="104.341" height="38.9574" filterUnits="userSpaceOnUse" color-interpolation-filters="sRGB">
<feFlood flood-opacity="0" result="BackgroundImageFix"/>
<feColorMatrix in="SourceAlpha" type="matrix" values="0 0 0 0 0 0 0 0 0 0 0 0 0 0 0 0 0 0 127 0"/>
<feOffset dy="3.6699"/>
<feGaussianBlur stdDeviation="1.83495"/>
<feColorMatrix type="matrix" values="0 0 0 0 0 0 0 0 0 0 0 0 0 0 0 0 0 0 0.1 0"/>
<feBlend mode="normal" in2="BackgroundImageFix" result="effect1_dropShadow"/>
<feBlend mode="normal" in="SourceGraphic" in2="effect1_dropShadow" result="shape"/>
</filter>
<filter id="filter2_d" x="1508.33" y="980.152" width="104.341" height="38.9574" filterUnits="userSpaceOnUse" color-interpolation-filters="sRGB">
<feFlood flood-opacity="0" result="BackgroundImageFix"/>
<feColorMatrix in="SourceAlpha" type="matrix" values="0 0 0 0 0 0 0 0 0 0 0 0 0 0 0 0 0 0 127 0"/>
<feOffset dy="3.6699"/>
<feGaussianBlur stdDeviation="1.83495"/>
<feColorMatrix type="matrix" values="0 0 0 0 0 0 0 0 0 0 0 0 0 0 0 0 0 0 0.1 0"/>
<feBlend mode="normal" in2="BackgroundImageFix" result="effect1_dropShadow"/>
<feBlend mode="normal" in="SourceGraphic" in2="effect1_dropShadow" result="shape"/>
</filter>
<filter id="filter3_d" x="1508.33" y="980.152" width="104.341" height="38.9574" filterUnits="userSpaceOnUse" color-interpolation-filters="sRGB">
<feFlood flood-opacity="0" result="BackgroundImageFix"/>
<feColorMatrix in="SourceAlpha" type="matrix" values="0 0 0 0 0 0 0 0 0 0 0 0 0 0 0 0 0 0 127 0"/>
<feOffset dy="3.6699"/>
<feGaussianBlur stdDeviation="1.83495"/>
<feColorMatrix type="matrix" values="0 0 0 0 0 0 0 0 0 0 0 0 0 0 0 0 0 0 0.1 0"/>
<feBlend mode="normal" in2="BackgroundImageFix" result="effect1_dropShadow"/>
<feBlend mode="normal" in="SourceGraphic" in2="effect1_dropShadow" result="shape"/>
</filter>
<filter id="filter4_d" x="1508.33" y="896.608" width="104.341" height="38.9574" filterUnits="userSpaceOnUse" color-interpolation-filters="sRGB">
<feFlood flood-opacity="0" result="BackgroundImageFix"/>
<feColorMatrix in="SourceAlpha" type="matrix" values="0 0 0 0 0 0 0 0 0 0 0 0 0 0 0 0 0 0 127 0"/>
<feOffset dy="3.6699"/>
<feGaussianBlur stdDeviation="1.83495"/>
<feColorMatrix type="matrix" values="0 0 0 0 0 0 0 0 0 0 0 0 0 0 0 0 0 0 0.1 0"/>
<feBlend mode="normal" in2="BackgroundImageFix" result="effect1_dropShadow"/>
<feBlend mode="normal" in="SourceGraphic" in2="effect1_dropShadow" result="shape"/>
</filter>
<filter id="filter5_d" x="1508.33" y="896.608" width="104.341" height="38.9574" filterUnits="userSpaceOnUse" color-interpolation-filters="sRGB">
<feFlood flood-opacity="0" result="BackgroundImageFix"/>
<feColorMatrix in="SourceAlpha" type="matrix" values="0 0 0 0 0 0 0 0 0 0 0 0 0 0 0 0 0 0 127 0"/>
<feOffset dy="3.6699"/>
<feGaussianBlur stdDeviation="1.83495"/>
<feColorMatrix type="matrix" values="0 0 0 0 0 0 0 0 0 0 0 0 0 0 0 0 0 0 0.1 0"/>
<feBlend mode="normal" in2="BackgroundImageFix" result="effect1_dropShadow"/>
<feBlend mode="normal" in="SourceGraphic" in2="effect1_dropShadow" result="shape"/>
</filter>
<linearGradient id="paint0_linear" x1="1425.38" y1="1093.03" x2="1425.38" y2="1135.63" gradientUnits="userSpaceOnUse">
<stop stop-color="white" stop-opacity="0"/>
<stop offset="1" stop-color="#D7E1E8"/>
</linearGradient>
<linearGradient id="paint1_linear" x1="1178.56" y1="839" x2="1178.56" y2="1218.48" gradientUnits="userSpaceOnUse">
<stop stop-color="white" stop-opacity="0"/>
<stop offset="1" stop-color="#38AE00"/>
</linearGradient>
</defs>
</svg>
