<svg width="1010" height="769" viewBox="0 0 1010 769" fill="none" xmlns="http://www.w3.org/2000/svg">
<path d="M563.465 55.781C598.346 27.2602 650.695 38.6424 670.585 79.0717L951.146 649.367C976.048 699.986 933.912 757.76 878.105 749.516L49.7309 627.145C-10.4163 618.26 -31.4178 542.191 15.6508 503.705L563.465 55.781Z" fill="#EAE7FD"/>
<g filter="url(#filter0_d)">
<rect x="233" y="262.007" width="534" height="189" rx="5" fill="white"/>
</g>
<path d="M232.805 210.429V222.007H224.578V187.882H238.195C240.805 187.882 243.109 188.367 245.109 189.335C247.125 190.289 248.68 191.656 249.773 193.437C250.883 195.203 251.438 197.21 251.438 199.46C251.438 202.789 250.242 205.453 247.852 207.453C245.477 209.437 242.211 210.429 238.055 210.429H232.805ZM232.805 204.078H238.195C239.789 204.078 241 203.679 241.828 202.882C242.672 202.085 243.094 200.96 243.094 199.507C243.094 197.914 242.664 196.64 241.805 195.687C240.945 194.734 239.773 194.25 238.289 194.234H232.805V204.078ZM254.156 209.093C254.156 206.562 254.648 204.312 255.633 202.343C256.617 200.359 258.031 198.835 259.875 197.773C261.719 196.71 263.883 196.179 266.367 196.179C270.164 196.179 273.156 197.359 275.344 199.718C277.531 202.062 278.625 205.257 278.625 209.304V209.585C278.625 213.539 277.523 216.679 275.32 219.007C273.133 221.32 270.164 222.476 266.414 222.476C262.805 222.476 259.906 221.398 257.719 219.242C255.531 217.07 254.352 214.132 254.18 210.429L254.156 209.093ZM262.055 209.585C262.055 211.929 262.422 213.648 263.156 214.742C263.891 215.835 264.977 216.382 266.414 216.382C269.227 216.382 270.664 214.218 270.727 209.89V209.093C270.727 204.546 269.273 202.273 266.367 202.273C263.727 202.273 262.297 204.234 262.078 208.156L262.055 209.585ZM305.648 209.515C305.648 213.453 304.758 216.601 302.977 218.96C301.211 221.304 298.82 222.476 295.805 222.476C293.477 222.476 291.562 221.625 290.062 219.921V231.757H282.164V196.648H289.547L289.781 198.992C291.297 197.117 293.289 196.179 295.758 196.179C298.883 196.179 301.312 197.335 303.047 199.648C304.781 201.945 305.648 205.109 305.648 209.14V209.515ZM297.75 209.023C297.75 204.523 296.438 202.273 293.812 202.273C291.938 202.273 290.688 202.945 290.062 204.289V214.273C290.75 215.679 292.016 216.382 293.859 216.382C296.375 216.382 297.672 214.21 297.75 209.867V209.023ZM324.258 219.265C322.586 221.406 320.328 222.476 317.484 222.476C314.703 222.476 312.594 221.671 311.156 220.062C309.734 218.437 309.023 216.109 309.023 213.078V196.648H316.922V213.125C316.922 215.296 317.977 216.382 320.086 216.382C321.898 216.382 323.188 215.734 323.953 214.437V196.648H331.898V222.007H324.492L324.258 219.265ZM344.578 222.007H336.656V186.007H344.578V222.007ZM363.75 222.007C363.469 221.492 363.219 220.734 363 219.734C361.547 221.562 359.516 222.476 356.906 222.476C354.516 222.476 352.484 221.757 350.812 220.32C349.141 218.867 348.305 217.046 348.305 214.859C348.305 212.109 349.32 210.031 351.352 208.625C353.383 207.218 356.336 206.515 360.211 206.515H362.648V205.179C362.648 202.851 361.641 201.687 359.625 201.687C357.75 201.687 356.812 202.609 356.812 204.453H348.914C348.914 202 349.953 200.007 352.031 198.476C354.125 196.945 356.789 196.179 360.023 196.179C363.258 196.179 365.812 196.968 367.688 198.546C369.562 200.125 370.523 202.289 370.57 205.039V216.265C370.602 218.593 370.961 220.375 371.648 221.609V222.007H363.75ZM358.805 216.851C359.789 216.851 360.602 216.64 361.242 216.218C361.898 215.796 362.367 215.32 362.648 214.789V210.734H360.352C357.602 210.734 356.227 211.968 356.227 214.437C356.227 215.156 356.469 215.742 356.953 216.195C357.438 216.632 358.055 216.851 358.805 216.851ZM390.305 203.796L387.703 203.609C385.219 203.609 383.625 204.39 382.922 205.953V222.007H375.023V196.648H382.43L382.688 199.906C384.016 197.421 385.867 196.179 388.242 196.179C389.086 196.179 389.82 196.273 390.445 196.46L390.305 203.796ZM433.078 210.453C432.969 212.828 432.328 214.929 431.156 216.757C429.984 218.57 428.336 219.976 426.211 220.976C424.102 221.976 421.688 222.476 418.969 222.476C414.484 222.476 410.953 221.015 408.375 218.093C405.797 215.171 404.508 211.046 404.508 205.718V204.031C404.508 200.687 405.086 197.765 406.242 195.265C407.414 192.75 409.094 190.812 411.281 189.453C413.469 188.078 416 187.39 418.875 187.39C423.016 187.39 426.344 188.484 428.859 190.671C431.375 192.843 432.805 195.843 433.148 199.671H424.945C424.883 197.593 424.359 196.101 423.375 195.195C422.391 194.289 420.891 193.835 418.875 193.835C416.828 193.835 415.328 194.601 414.375 196.132C413.422 197.664 412.922 200.109 412.875 203.468V205.882C412.875 209.523 413.328 212.125 414.234 213.687C415.156 215.25 416.734 216.031 418.969 216.031C420.859 216.031 422.305 215.585 423.305 214.695C424.305 213.804 424.836 212.39 424.898 210.453H433.078ZM435.609 209.093C435.609 206.562 436.102 204.312 437.086 202.343C438.07 200.359 439.484 198.835 441.328 197.773C443.172 196.71 445.336 196.179 447.82 196.179C451.617 196.179 454.609 197.359 456.797 199.718C458.984 202.062 460.078 205.257 460.078 209.304V209.585C460.078 213.539 458.977 216.679 456.773 219.007C454.586 221.32 451.617 222.476 447.867 222.476C444.258 222.476 441.359 221.398 439.172 219.242C436.984 217.07 435.805 214.132 435.633 210.429L435.609 209.093ZM443.508 209.585C443.508 211.929 443.875 213.648 444.609 214.742C445.344 215.835 446.43 216.382 447.867 216.382C450.68 216.382 452.117 214.218 452.18 209.89V209.093C452.18 204.546 450.727 202.273 447.82 202.273C445.18 202.273 443.75 204.234 443.531 208.156L443.508 209.585ZM478.664 219.265C476.992 221.406 474.734 222.476 471.891 222.476C469.109 222.476 467 221.671 465.562 220.062C464.141 218.437 463.43 216.109 463.43 213.078V196.648H471.328V213.125C471.328 215.296 472.383 216.382 474.492 216.382C476.305 216.382 477.594 215.734 478.359 214.437V196.648H486.305V222.007H478.898L478.664 219.265ZM505.992 203.796L503.391 203.609C500.906 203.609 499.312 204.39 498.609 205.953V222.007H490.711V196.648H498.117L498.375 199.906C499.703 197.421 501.555 196.179 503.93 196.179C504.773 196.179 505.508 196.273 506.133 196.46L505.992 203.796ZM522.117 214.882C522.117 214.21 521.766 213.671 521.062 213.265C520.359 212.859 519.023 212.437 517.055 212C515.086 211.562 513.461 210.992 512.18 210.289C510.898 209.57 509.922 208.703 509.25 207.687C508.578 206.671 508.242 205.507 508.242 204.195C508.242 201.867 509.203 199.953 511.125 198.453C513.047 196.937 515.562 196.179 518.672 196.179C522.016 196.179 524.703 196.937 526.734 198.453C528.766 199.968 529.781 201.96 529.781 204.429H521.859C521.859 202.398 520.789 201.382 518.648 201.382C517.82 201.382 517.125 201.617 516.562 202.085C516 202.539 515.719 203.109 515.719 203.796C515.719 204.5 516.062 205.07 516.75 205.507C517.438 205.945 518.531 206.304 520.031 206.585C521.547 206.867 522.875 207.203 524.016 207.593C527.828 208.906 529.734 211.257 529.734 214.648C529.734 216.96 528.703 218.843 526.641 220.296C524.594 221.75 521.938 222.476 518.672 222.476C516.5 222.476 514.562 222.085 512.859 221.304C511.156 220.523 509.828 219.46 508.875 218.117C507.922 216.773 507.445 215.359 507.445 213.875H514.828C514.859 215.046 515.25 215.906 516 216.453C516.75 216.984 517.711 217.25 518.883 217.25C519.961 217.25 520.766 217.031 521.297 216.593C521.844 216.156 522.117 215.585 522.117 214.882ZM545.719 222.476C541.828 222.476 538.68 221.32 536.273 219.007C533.867 216.679 532.664 213.656 532.664 209.937V209.281C532.664 206.687 533.141 204.398 534.094 202.414C535.062 200.429 536.469 198.898 538.312 197.82C540.156 196.726 542.344 196.179 544.875 196.179C548.438 196.179 551.25 197.289 553.312 199.507C555.375 201.71 556.406 204.789 556.406 208.742V211.812H540.703C540.984 213.234 541.602 214.351 542.555 215.164C543.508 215.976 544.742 216.382 546.258 216.382C548.758 216.382 550.711 215.507 552.117 213.757L555.727 218.023C554.742 219.382 553.344 220.468 551.531 221.281C549.734 222.078 547.797 222.476 545.719 222.476ZM544.828 202.273C542.516 202.273 541.141 203.804 540.703 206.867H548.672V206.257C548.703 204.992 548.383 204.015 547.711 203.328C547.039 202.625 546.078 202.273 544.828 202.273ZM572.883 214.882C572.883 214.21 572.531 213.671 571.828 213.265C571.125 212.859 569.789 212.437 567.82 212C565.852 211.562 564.227 210.992 562.945 210.289C561.664 209.57 560.688 208.703 560.016 207.687C559.344 206.671 559.008 205.507 559.008 204.195C559.008 201.867 559.969 199.953 561.891 198.453C563.812 196.937 566.328 196.179 569.438 196.179C572.781 196.179 575.469 196.937 577.5 198.453C579.531 199.968 580.547 201.96 580.547 204.429H572.625C572.625 202.398 571.555 201.382 569.414 201.382C568.586 201.382 567.891 201.617 567.328 202.085C566.766 202.539 566.484 203.109 566.484 203.796C566.484 204.5 566.828 205.07 567.516 205.507C568.203 205.945 569.297 206.304 570.797 206.585C572.312 206.867 573.641 207.203 574.781 207.593C578.594 208.906 580.5 211.257 580.5 214.648C580.5 216.96 579.469 218.843 577.406 220.296C575.359 221.75 572.703 222.476 569.438 222.476C567.266 222.476 565.328 222.085 563.625 221.304C561.922 220.523 560.594 219.46 559.641 218.117C558.688 216.773 558.211 215.359 558.211 213.875H565.594C565.625 215.046 566.016 215.906 566.766 216.453C567.516 216.984 568.477 217.25 569.648 217.25C570.727 217.25 571.531 217.031 572.062 216.593C572.609 216.156 572.883 215.585 572.883 214.882Z" fill="black"/>
<defs>
<filter id="filter0_d" x="229" y="262.007" width="542" height="197" filterUnits="userSpaceOnUse" color-interpolation-filters="sRGB">
<feFlood flood-opacity="0" result="BackgroundImageFix"/>
<feColorMatrix in="SourceAlpha" type="matrix" values="0 0 0 0 0 0 0 0 0 0 0 0 0 0 0 0 0 0 127 0"/>
<feOffset dy="4"/>
<feGaussianBlur stdDeviation="2"/>
<feColorMatrix type="matrix" values="0 0 0 0 0 0 0 0 0 0 0 0 0 0 0 0 0 0 0.1 0"/>
<feBlend mode="normal" in2="BackgroundImageFix" result="effect1_dropShadow"/>
<feBlend mode="normal" in="SourceGraphic" in2="effect1_dropShadow" result="shape"/>
</filter>
</defs>
</svg>
